<mxfile host="app.diagrams.net" agent="Mozilla/5.0 (Windows NT 10.0; Win64; x64) AppleWebKit/537.36 (KHTML, like Gecko) Chrome/133.0.0.0 Safari/537.36 Edg/133.0.0.0" version="26.0.16">
  <diagram name="第 1 页" id="vKlumTbEdaWXR2a0wQ_p">
    <mxGraphModel dx="2122" dy="659" grid="1" gridSize="10" guides="1" tooltips="1" connect="1" arrows="1" fold="1" page="1" pageScale="1" pageWidth="827" pageHeight="1169" math="0" shadow="0">
      <root>
        <mxCell id="0" />
        <mxCell id="1" parent="0" />
        <mxCell id="NF1_YRwe_W2uzEk2HSps-62" value="" style="group;fillColor=none;" vertex="1" connectable="0" parent="1">
          <mxGeometry x="100" y="85" width="790" height="355" as="geometry" />
        </mxCell>
        <mxCell id="NF1_YRwe_W2uzEk2HSps-1" value="" style="rounded=0;whiteSpace=wrap;html=1;fillColor=none;" vertex="1" parent="NF1_YRwe_W2uzEk2HSps-62">
          <mxGeometry width="790" height="355" as="geometry" />
        </mxCell>
        <mxCell id="NF1_YRwe_W2uzEk2HSps-108" value="" style="group" vertex="1" connectable="0" parent="NF1_YRwe_W2uzEk2HSps-62">
          <mxGeometry x="80" y="85" width="310" height="170" as="geometry" />
        </mxCell>
        <mxCell id="NF1_YRwe_W2uzEk2HSps-2" value="" style="rounded=0;whiteSpace=wrap;html=1;fillColor=none;" vertex="1" parent="NF1_YRwe_W2uzEk2HSps-108">
          <mxGeometry x="10" width="290" height="170" as="geometry" />
        </mxCell>
        <mxCell id="NF1_YRwe_W2uzEk2HSps-10" value="" style="verticalLabelPosition=bottom;shadow=0;dashed=0;align=center;html=1;verticalAlign=top;shape=mxgraph.electrical.logic_gates.buffer2;" vertex="1" parent="NF1_YRwe_W2uzEk2HSps-108">
          <mxGeometry x="40" y="20" width="50" height="30" as="geometry" />
        </mxCell>
        <mxCell id="NF1_YRwe_W2uzEk2HSps-12" value="" style="verticalLabelPosition=bottom;shadow=0;dashed=0;align=center;html=1;verticalAlign=top;shape=mxgraph.electrical.logic_gates.d_type_flip-flop;" vertex="1" parent="NF1_YRwe_W2uzEk2HSps-108">
          <mxGeometry x="100" y="70" width="80" height="60" as="geometry" />
        </mxCell>
        <mxCell id="NF1_YRwe_W2uzEk2HSps-29" value="" style="group" vertex="1" connectable="0" parent="NF1_YRwe_W2uzEk2HSps-108">
          <mxGeometry y="30" width="20" height="10" as="geometry" />
        </mxCell>
        <mxCell id="NF1_YRwe_W2uzEk2HSps-30" value="" style="rounded=0;whiteSpace=wrap;html=1;fillColor=light-dark(#FFFF99,var(--ge-dark-color, #121212));" vertex="1" parent="NF1_YRwe_W2uzEk2HSps-29">
          <mxGeometry width="10" height="10" as="geometry" />
        </mxCell>
        <mxCell id="NF1_YRwe_W2uzEk2HSps-31" value="" style="rounded=0;whiteSpace=wrap;html=1;fillColor=light-dark(#EA6B66,var(--ge-dark-color, #121212));" vertex="1" parent="NF1_YRwe_W2uzEk2HSps-29">
          <mxGeometry x="10" width="10" height="10" as="geometry" />
        </mxCell>
        <mxCell id="NF1_YRwe_W2uzEk2HSps-32" value="" style="group" vertex="1" connectable="0" parent="NF1_YRwe_W2uzEk2HSps-108">
          <mxGeometry y="130" width="20" height="10" as="geometry" />
        </mxCell>
        <mxCell id="NF1_YRwe_W2uzEk2HSps-33" value="" style="rounded=0;whiteSpace=wrap;html=1;fillColor=light-dark(#FFFF99,var(--ge-dark-color, #121212));" vertex="1" parent="NF1_YRwe_W2uzEk2HSps-32">
          <mxGeometry width="10" height="10" as="geometry" />
        </mxCell>
        <mxCell id="NF1_YRwe_W2uzEk2HSps-34" value="" style="rounded=0;whiteSpace=wrap;html=1;fillColor=light-dark(#EA6B66,var(--ge-dark-color, #121212));" vertex="1" parent="NF1_YRwe_W2uzEk2HSps-32">
          <mxGeometry x="10" width="10" height="10" as="geometry" />
        </mxCell>
        <mxCell id="NF1_YRwe_W2uzEk2HSps-35" value="" style="group;rotation=-180;" vertex="1" connectable="0" parent="NF1_YRwe_W2uzEk2HSps-108">
          <mxGeometry x="290" y="80" width="20" height="10" as="geometry" />
        </mxCell>
        <mxCell id="NF1_YRwe_W2uzEk2HSps-36" value="" style="rounded=0;whiteSpace=wrap;html=1;fillColor=light-dark(#FFFF99,var(--ge-dark-color, #121212));rotation=-180;" vertex="1" parent="NF1_YRwe_W2uzEk2HSps-35">
          <mxGeometry x="10" width="10" height="10" as="geometry" />
        </mxCell>
        <mxCell id="NF1_YRwe_W2uzEk2HSps-37" value="" style="rounded=0;whiteSpace=wrap;html=1;fillColor=light-dark(#EA6B66,var(--ge-dark-color, #121212));rotation=-180;" vertex="1" parent="NF1_YRwe_W2uzEk2HSps-35">
          <mxGeometry width="10" height="10" as="geometry" />
        </mxCell>
        <mxCell id="NF1_YRwe_W2uzEk2HSps-54" style="edgeStyle=orthogonalEdgeStyle;rounded=0;orthogonalLoop=1;jettySize=auto;html=1;exitX=1;exitY=0.5;exitDx=0;exitDy=0;entryX=0.207;entryY=0.499;entryDx=0;entryDy=0;entryPerimeter=0;" edge="1" parent="NF1_YRwe_W2uzEk2HSps-108" source="NF1_YRwe_W2uzEk2HSps-31" target="NF1_YRwe_W2uzEk2HSps-10">
          <mxGeometry relative="1" as="geometry" />
        </mxCell>
        <mxCell id="NF1_YRwe_W2uzEk2HSps-55" style="edgeStyle=orthogonalEdgeStyle;rounded=0;orthogonalLoop=1;jettySize=auto;html=1;exitX=1;exitY=0.5;exitDx=0;exitDy=0;entryX=0.205;entryY=0.25;entryDx=0;entryDy=0;entryPerimeter=0;" edge="1" parent="NF1_YRwe_W2uzEk2HSps-108" source="NF1_YRwe_W2uzEk2HSps-10" target="NF1_YRwe_W2uzEk2HSps-12">
          <mxGeometry relative="1" as="geometry">
            <Array as="points">
              <mxPoint x="90" y="35" />
              <mxPoint x="90" y="80" />
            </Array>
          </mxGeometry>
        </mxCell>
        <mxCell id="NF1_YRwe_W2uzEk2HSps-56" style="edgeStyle=orthogonalEdgeStyle;rounded=0;orthogonalLoop=1;jettySize=auto;html=1;exitX=1;exitY=0.5;exitDx=0;exitDy=0;entryX=0.197;entryY=0.75;entryDx=0;entryDy=0;entryPerimeter=0;" edge="1" parent="NF1_YRwe_W2uzEk2HSps-108" source="NF1_YRwe_W2uzEk2HSps-34" target="NF1_YRwe_W2uzEk2HSps-12">
          <mxGeometry relative="1" as="geometry" />
        </mxCell>
        <mxCell id="NF1_YRwe_W2uzEk2HSps-59" style="edgeStyle=orthogonalEdgeStyle;rounded=0;orthogonalLoop=1;jettySize=auto;html=1;exitX=1;exitY=0.5;exitDx=0;exitDy=0;entryX=1;entryY=0.5;entryDx=0;entryDy=0;" edge="1" parent="NF1_YRwe_W2uzEk2HSps-108" source="NF1_YRwe_W2uzEk2HSps-57" target="NF1_YRwe_W2uzEk2HSps-37">
          <mxGeometry relative="1" as="geometry" />
        </mxCell>
        <mxCell id="NF1_YRwe_W2uzEk2HSps-57" value="" style="verticalLabelPosition=bottom;shadow=0;dashed=0;align=center;html=1;verticalAlign=top;shape=mxgraph.electrical.logic_gates.buffer2;" vertex="1" parent="NF1_YRwe_W2uzEk2HSps-108">
          <mxGeometry x="209" y="70" width="50" height="30" as="geometry" />
        </mxCell>
        <mxCell id="NF1_YRwe_W2uzEk2HSps-58" style="edgeStyle=orthogonalEdgeStyle;rounded=0;orthogonalLoop=1;jettySize=auto;html=1;exitX=1;exitY=0.25;exitDx=0;exitDy=0;exitPerimeter=0;entryX=0.201;entryY=0.513;entryDx=0;entryDy=0;entryPerimeter=0;" edge="1" parent="NF1_YRwe_W2uzEk2HSps-108" source="NF1_YRwe_W2uzEk2HSps-12" target="NF1_YRwe_W2uzEk2HSps-57">
          <mxGeometry relative="1" as="geometry" />
        </mxCell>
        <mxCell id="NF1_YRwe_W2uzEk2HSps-136" value="&lt;font style=&quot;font-size: 10px;&quot;&gt;b1/u1&lt;/font&gt;" style="text;html=1;align=center;verticalAlign=middle;resizable=0;points=[];autosize=1;strokeColor=none;fillColor=none;" vertex="1" parent="NF1_YRwe_W2uzEk2HSps-108">
          <mxGeometry x="40" y="40" width="50" height="30" as="geometry" />
        </mxCell>
        <mxCell id="NF1_YRwe_W2uzEk2HSps-137" value="&lt;font style=&quot;font-size: 10px;&quot;&gt;b1/u2&lt;/font&gt;" style="text;html=1;align=center;verticalAlign=middle;resizable=0;points=[];autosize=1;strokeColor=none;fillColor=none;" vertex="1" parent="NF1_YRwe_W2uzEk2HSps-108">
          <mxGeometry x="209" y="90" width="50" height="30" as="geometry" />
        </mxCell>
        <mxCell id="NF1_YRwe_W2uzEk2HSps-138" value="&lt;font style=&quot;font-size: 10px;&quot;&gt;b1/r1&lt;/font&gt;" style="text;html=1;align=center;verticalAlign=middle;resizable=0;points=[];autosize=1;strokeColor=none;fillColor=none;" vertex="1" parent="NF1_YRwe_W2uzEk2HSps-108">
          <mxGeometry x="115" y="120" width="50" height="30" as="geometry" />
        </mxCell>
        <mxCell id="NF1_YRwe_W2uzEk2HSps-143" value="&lt;font style=&quot;font-size: 10px;&quot;&gt;&lt;i&gt;clk&lt;/i&gt;&lt;/font&gt;" style="text;html=1;align=center;verticalAlign=middle;resizable=0;points=[];autosize=1;strokeColor=none;fillColor=none;" vertex="1" parent="NF1_YRwe_W2uzEk2HSps-108">
          <mxGeometry x="50" y="110" width="40" height="30" as="geometry" />
        </mxCell>
        <mxCell id="NF1_YRwe_W2uzEk2HSps-145" value="&lt;font style=&quot;font-size: 10px;&quot;&gt;&lt;i&gt;in&lt;/i&gt;&lt;/font&gt;" style="text;html=1;align=center;verticalAlign=middle;resizable=0;points=[];autosize=1;strokeColor=none;fillColor=none;" vertex="1" parent="NF1_YRwe_W2uzEk2HSps-108">
          <mxGeometry x="15" y="10" width="30" height="30" as="geometry" />
        </mxCell>
        <mxCell id="NF1_YRwe_W2uzEk2HSps-148" value="&lt;font style=&quot;font-size: 10px;&quot;&gt;&lt;i&gt;out&lt;/i&gt;&lt;/font&gt;" style="text;html=1;align=center;verticalAlign=middle;resizable=0;points=[];autosize=1;strokeColor=none;fillColor=none;" vertex="1" parent="NF1_YRwe_W2uzEk2HSps-108">
          <mxGeometry x="250" y="60" width="40" height="30" as="geometry" />
        </mxCell>
        <mxCell id="NF1_YRwe_W2uzEk2HSps-149" value="&lt;font style=&quot;font-size: 10px;&quot;&gt;&lt;i&gt;u1out&lt;/i&gt;&lt;/font&gt;" style="text;html=1;align=center;verticalAlign=middle;resizable=0;points=[];autosize=1;strokeColor=none;fillColor=none;" vertex="1" parent="NF1_YRwe_W2uzEk2HSps-108">
          <mxGeometry x="80" y="40" width="50" height="30" as="geometry" />
        </mxCell>
        <mxCell id="NF1_YRwe_W2uzEk2HSps-209" value="&lt;font style=&quot;font-size: 10px;&quot;&gt;&lt;i&gt;r1q&lt;/i&gt;&lt;/font&gt;" style="text;html=1;align=center;verticalAlign=middle;resizable=0;points=[];autosize=1;strokeColor=none;fillColor=none;" vertex="1" parent="NF1_YRwe_W2uzEk2HSps-108">
          <mxGeometry x="164" y="60" width="40" height="30" as="geometry" />
        </mxCell>
        <mxCell id="NF1_YRwe_W2uzEk2HSps-109" value="" style="group" vertex="1" connectable="0" parent="NF1_YRwe_W2uzEk2HSps-62">
          <mxGeometry x="430" y="85" width="310" height="170" as="geometry" />
        </mxCell>
        <mxCell id="NF1_YRwe_W2uzEk2HSps-110" value="" style="rounded=0;whiteSpace=wrap;html=1;fillColor=none;" vertex="1" parent="NF1_YRwe_W2uzEk2HSps-109">
          <mxGeometry x="10" width="290" height="170" as="geometry" />
        </mxCell>
        <mxCell id="NF1_YRwe_W2uzEk2HSps-111" value="" style="verticalLabelPosition=bottom;shadow=0;dashed=0;align=center;html=1;verticalAlign=top;shape=mxgraph.electrical.logic_gates.buffer2;" vertex="1" parent="NF1_YRwe_W2uzEk2HSps-109">
          <mxGeometry x="40" y="20" width="50" height="30" as="geometry" />
        </mxCell>
        <mxCell id="NF1_YRwe_W2uzEk2HSps-112" value="" style="verticalLabelPosition=bottom;shadow=0;dashed=0;align=center;html=1;verticalAlign=top;shape=mxgraph.electrical.logic_gates.d_type_flip-flop;" vertex="1" parent="NF1_YRwe_W2uzEk2HSps-109">
          <mxGeometry x="100" y="70" width="80" height="60" as="geometry" />
        </mxCell>
        <mxCell id="NF1_YRwe_W2uzEk2HSps-113" value="" style="group" vertex="1" connectable="0" parent="NF1_YRwe_W2uzEk2HSps-109">
          <mxGeometry y="30" width="20" height="10" as="geometry" />
        </mxCell>
        <mxCell id="NF1_YRwe_W2uzEk2HSps-114" value="" style="rounded=0;whiteSpace=wrap;html=1;fillColor=light-dark(#FFFF99,var(--ge-dark-color, #121212));" vertex="1" parent="NF1_YRwe_W2uzEk2HSps-113">
          <mxGeometry width="10" height="10" as="geometry" />
        </mxCell>
        <mxCell id="NF1_YRwe_W2uzEk2HSps-115" value="" style="rounded=0;whiteSpace=wrap;html=1;fillColor=light-dark(#EA6B66,var(--ge-dark-color, #121212));" vertex="1" parent="NF1_YRwe_W2uzEk2HSps-113">
          <mxGeometry x="10" width="10" height="10" as="geometry" />
        </mxCell>
        <mxCell id="NF1_YRwe_W2uzEk2HSps-116" value="" style="group" vertex="1" connectable="0" parent="NF1_YRwe_W2uzEk2HSps-109">
          <mxGeometry y="130" width="20" height="10" as="geometry" />
        </mxCell>
        <mxCell id="NF1_YRwe_W2uzEk2HSps-117" value="" style="rounded=0;whiteSpace=wrap;html=1;fillColor=light-dark(#FFFF99,var(--ge-dark-color, #121212));" vertex="1" parent="NF1_YRwe_W2uzEk2HSps-116">
          <mxGeometry width="10" height="10" as="geometry" />
        </mxCell>
        <mxCell id="NF1_YRwe_W2uzEk2HSps-118" value="" style="rounded=0;whiteSpace=wrap;html=1;fillColor=light-dark(#EA6B66,var(--ge-dark-color, #121212));" vertex="1" parent="NF1_YRwe_W2uzEk2HSps-116">
          <mxGeometry x="10" width="10" height="10" as="geometry" />
        </mxCell>
        <mxCell id="NF1_YRwe_W2uzEk2HSps-119" value="" style="group;rotation=-180;" vertex="1" connectable="0" parent="NF1_YRwe_W2uzEk2HSps-109">
          <mxGeometry x="290" y="80" width="20" height="10" as="geometry" />
        </mxCell>
        <mxCell id="NF1_YRwe_W2uzEk2HSps-120" value="" style="rounded=0;whiteSpace=wrap;html=1;fillColor=light-dark(#FFFF99,var(--ge-dark-color, #121212));rotation=-180;" vertex="1" parent="NF1_YRwe_W2uzEk2HSps-119">
          <mxGeometry x="10" width="10" height="10" as="geometry" />
        </mxCell>
        <mxCell id="NF1_YRwe_W2uzEk2HSps-121" value="" style="rounded=0;whiteSpace=wrap;html=1;fillColor=light-dark(#EA6B66,var(--ge-dark-color, #121212));rotation=-180;" vertex="1" parent="NF1_YRwe_W2uzEk2HSps-119">
          <mxGeometry width="10" height="10" as="geometry" />
        </mxCell>
        <mxCell id="NF1_YRwe_W2uzEk2HSps-122" style="edgeStyle=orthogonalEdgeStyle;rounded=0;orthogonalLoop=1;jettySize=auto;html=1;exitX=1;exitY=0.5;exitDx=0;exitDy=0;entryX=0.207;entryY=0.499;entryDx=0;entryDy=0;entryPerimeter=0;" edge="1" parent="NF1_YRwe_W2uzEk2HSps-109" source="NF1_YRwe_W2uzEk2HSps-115" target="NF1_YRwe_W2uzEk2HSps-111">
          <mxGeometry relative="1" as="geometry" />
        </mxCell>
        <mxCell id="NF1_YRwe_W2uzEk2HSps-123" style="edgeStyle=orthogonalEdgeStyle;rounded=0;orthogonalLoop=1;jettySize=auto;html=1;exitX=1;exitY=0.5;exitDx=0;exitDy=0;entryX=0.205;entryY=0.25;entryDx=0;entryDy=0;entryPerimeter=0;" edge="1" parent="NF1_YRwe_W2uzEk2HSps-109" source="NF1_YRwe_W2uzEk2HSps-111" target="NF1_YRwe_W2uzEk2HSps-112">
          <mxGeometry relative="1" as="geometry">
            <Array as="points">
              <mxPoint x="90" y="35" />
              <mxPoint x="90" y="80" />
            </Array>
          </mxGeometry>
        </mxCell>
        <mxCell id="NF1_YRwe_W2uzEk2HSps-124" style="edgeStyle=orthogonalEdgeStyle;rounded=0;orthogonalLoop=1;jettySize=auto;html=1;exitX=1;exitY=0.5;exitDx=0;exitDy=0;entryX=0.197;entryY=0.75;entryDx=0;entryDy=0;entryPerimeter=0;" edge="1" parent="NF1_YRwe_W2uzEk2HSps-109" source="NF1_YRwe_W2uzEk2HSps-118" target="NF1_YRwe_W2uzEk2HSps-112">
          <mxGeometry relative="1" as="geometry" />
        </mxCell>
        <mxCell id="NF1_YRwe_W2uzEk2HSps-125" style="edgeStyle=orthogonalEdgeStyle;rounded=0;orthogonalLoop=1;jettySize=auto;html=1;exitX=1;exitY=0.5;exitDx=0;exitDy=0;entryX=1;entryY=0.5;entryDx=0;entryDy=0;" edge="1" parent="NF1_YRwe_W2uzEk2HSps-109" source="NF1_YRwe_W2uzEk2HSps-126" target="NF1_YRwe_W2uzEk2HSps-121">
          <mxGeometry relative="1" as="geometry" />
        </mxCell>
        <mxCell id="NF1_YRwe_W2uzEk2HSps-126" value="" style="verticalLabelPosition=bottom;shadow=0;dashed=0;align=center;html=1;verticalAlign=top;shape=mxgraph.electrical.logic_gates.buffer2;" vertex="1" parent="NF1_YRwe_W2uzEk2HSps-109">
          <mxGeometry x="209" y="70" width="50" height="30" as="geometry" />
        </mxCell>
        <mxCell id="NF1_YRwe_W2uzEk2HSps-127" style="edgeStyle=orthogonalEdgeStyle;rounded=0;orthogonalLoop=1;jettySize=auto;html=1;exitX=1;exitY=0.25;exitDx=0;exitDy=0;exitPerimeter=0;entryX=0.201;entryY=0.513;entryDx=0;entryDy=0;entryPerimeter=0;" edge="1" parent="NF1_YRwe_W2uzEk2HSps-109" source="NF1_YRwe_W2uzEk2HSps-112" target="NF1_YRwe_W2uzEk2HSps-126">
          <mxGeometry relative="1" as="geometry" />
        </mxCell>
        <mxCell id="NF1_YRwe_W2uzEk2HSps-139" value="&lt;font style=&quot;font-size: 10px;&quot;&gt;b2/r1&lt;/font&gt;" style="text;html=1;align=center;verticalAlign=middle;resizable=0;points=[];autosize=1;strokeColor=none;fillColor=none;" vertex="1" parent="NF1_YRwe_W2uzEk2HSps-109">
          <mxGeometry x="115" y="120" width="50" height="30" as="geometry" />
        </mxCell>
        <mxCell id="NF1_YRwe_W2uzEk2HSps-140" value="&lt;font style=&quot;font-size: 10px;&quot;&gt;b2/u1&lt;/font&gt;" style="text;html=1;align=center;verticalAlign=middle;resizable=0;points=[];autosize=1;strokeColor=none;fillColor=none;" vertex="1" parent="NF1_YRwe_W2uzEk2HSps-109">
          <mxGeometry x="40" y="40" width="50" height="30" as="geometry" />
        </mxCell>
        <mxCell id="NF1_YRwe_W2uzEk2HSps-141" value="&lt;font style=&quot;font-size: 10px;&quot;&gt;b2/u2&lt;/font&gt;" style="text;html=1;align=center;verticalAlign=middle;resizable=0;points=[];autosize=1;strokeColor=none;fillColor=none;" vertex="1" parent="NF1_YRwe_W2uzEk2HSps-109">
          <mxGeometry x="209" y="90" width="50" height="30" as="geometry" />
        </mxCell>
        <mxCell id="NF1_YRwe_W2uzEk2HSps-144" value="&lt;font style=&quot;font-size: 10px;&quot;&gt;&lt;i&gt;clk&lt;/i&gt;&lt;/font&gt;" style="text;html=1;align=center;verticalAlign=middle;resizable=0;points=[];autosize=1;strokeColor=none;fillColor=none;" vertex="1" parent="NF1_YRwe_W2uzEk2HSps-109">
          <mxGeometry x="50" y="110" width="40" height="30" as="geometry" />
        </mxCell>
        <mxCell id="NF1_YRwe_W2uzEk2HSps-146" value="&lt;font style=&quot;font-size: 10px;&quot;&gt;&lt;i&gt;in&lt;/i&gt;&lt;/font&gt;" style="text;html=1;align=center;verticalAlign=middle;resizable=0;points=[];autosize=1;strokeColor=none;fillColor=none;" vertex="1" parent="NF1_YRwe_W2uzEk2HSps-109">
          <mxGeometry x="20" y="10" width="30" height="30" as="geometry" />
        </mxCell>
        <mxCell id="NF1_YRwe_W2uzEk2HSps-147" value="&lt;font style=&quot;font-size: 10px;&quot;&gt;&lt;i&gt;out&lt;/i&gt;&lt;/font&gt;" style="text;html=1;align=center;verticalAlign=middle;resizable=0;points=[];autosize=1;strokeColor=none;fillColor=none;" vertex="1" parent="NF1_YRwe_W2uzEk2HSps-109">
          <mxGeometry x="250" y="60" width="40" height="30" as="geometry" />
        </mxCell>
        <mxCell id="NF1_YRwe_W2uzEk2HSps-150" value="&lt;font style=&quot;font-size: 10px;&quot;&gt;&lt;i&gt;u1out&lt;/i&gt;&lt;/font&gt;" style="text;html=1;align=center;verticalAlign=middle;resizable=0;points=[];autosize=1;strokeColor=none;fillColor=none;" vertex="1" parent="NF1_YRwe_W2uzEk2HSps-109">
          <mxGeometry x="80" y="40" width="50" height="30" as="geometry" />
        </mxCell>
        <mxCell id="NF1_YRwe_W2uzEk2HSps-210" value="&lt;font style=&quot;font-size: 10px;&quot;&gt;&lt;i&gt;r1q&lt;/i&gt;&lt;/font&gt;" style="text;html=1;align=center;verticalAlign=middle;resizable=0;points=[];autosize=1;strokeColor=none;fillColor=none;" vertex="1" parent="NF1_YRwe_W2uzEk2HSps-109">
          <mxGeometry x="165" y="60" width="40" height="30" as="geometry" />
        </mxCell>
        <mxCell id="NF1_YRwe_W2uzEk2HSps-128" style="edgeStyle=orthogonalEdgeStyle;rounded=0;orthogonalLoop=1;jettySize=auto;html=1;exitX=0;exitY=0.5;exitDx=0;exitDy=0;entryX=0;entryY=0.5;entryDx=0;entryDy=0;" edge="1" parent="NF1_YRwe_W2uzEk2HSps-62" source="NF1_YRwe_W2uzEk2HSps-36" target="NF1_YRwe_W2uzEk2HSps-114">
          <mxGeometry relative="1" as="geometry" />
        </mxCell>
        <mxCell id="NF1_YRwe_W2uzEk2HSps-133" value="&lt;font style=&quot;font-size: 10px;&quot;&gt;&lt;i&gt;b1out&lt;/i&gt;&lt;/font&gt;" style="text;html=1;align=center;verticalAlign=middle;resizable=0;points=[];autosize=1;strokeColor=none;fillColor=none;" vertex="1" parent="NF1_YRwe_W2uzEk2HSps-62">
          <mxGeometry x="400" y="145" width="50" height="30" as="geometry" />
        </mxCell>
        <mxCell id="NF1_YRwe_W2uzEk2HSps-134" value="&lt;font style=&quot;font-size: 10px;&quot;&gt;&lt;i&gt;clk2&lt;/i&gt;&lt;/font&gt;" style="text;html=1;align=center;verticalAlign=middle;resizable=0;points=[];autosize=1;strokeColor=none;fillColor=none;" vertex="1" parent="NF1_YRwe_W2uzEk2HSps-62">
          <mxGeometry x="335" y="265" width="40" height="30" as="geometry" />
        </mxCell>
        <mxCell id="NF1_YRwe_W2uzEk2HSps-142" value="&lt;font style=&quot;font-size: 10px;&quot;&gt;&lt;i&gt;out&lt;/i&gt;&lt;/font&gt;" style="text;html=1;align=center;verticalAlign=middle;resizable=0;points=[];autosize=1;strokeColor=none;fillColor=none;" vertex="1" parent="NF1_YRwe_W2uzEk2HSps-62">
          <mxGeometry x="740" y="162.5" width="40" height="30" as="geometry" />
        </mxCell>
        <mxCell id="NF1_YRwe_W2uzEk2HSps-215" value="&lt;font style=&quot;font-size: 10px;&quot;&gt;b2/in&lt;/font&gt;" style="text;html=1;align=center;verticalAlign=middle;resizable=0;points=[];autosize=1;strokeColor=none;fillColor=none;" vertex="1" parent="NF1_YRwe_W2uzEk2HSps-62">
          <mxGeometry x="400" y="115" width="50" height="30" as="geometry" />
        </mxCell>
        <mxCell id="NF1_YRwe_W2uzEk2HSps-216" value="&lt;font style=&quot;font-size: 10px;&quot;&gt;b2/clk&lt;/font&gt;" style="text;html=1;align=center;verticalAlign=middle;resizable=0;points=[];autosize=1;strokeColor=none;fillColor=none;" vertex="1" parent="NF1_YRwe_W2uzEk2HSps-62">
          <mxGeometry x="400" y="215" width="50" height="30" as="geometry" />
        </mxCell>
        <mxCell id="NF1_YRwe_W2uzEk2HSps-217" value="&lt;font style=&quot;font-size: 10px;&quot;&gt;b1/out&lt;/font&gt;" style="text;html=1;align=center;verticalAlign=middle;resizable=0;points=[];autosize=1;strokeColor=none;fillColor=none;" vertex="1" parent="NF1_YRwe_W2uzEk2HSps-62">
          <mxGeometry x="370" y="165" width="50" height="30" as="geometry" />
        </mxCell>
        <mxCell id="NF1_YRwe_W2uzEk2HSps-218" value="&lt;font style=&quot;font-size: 10px;&quot;&gt;b2/out&lt;/font&gt;" style="text;html=1;align=center;verticalAlign=middle;resizable=0;points=[];autosize=1;strokeColor=none;fillColor=none;" vertex="1" parent="NF1_YRwe_W2uzEk2HSps-62">
          <mxGeometry x="720" y="145" width="50" height="30" as="geometry" />
        </mxCell>
        <mxCell id="NF1_YRwe_W2uzEk2HSps-3" value="" style="shape=image;verticalLabelPosition=bottom;labelBackgroundColor=default;verticalAlign=top;aspect=fixed;imageAspect=0;image=data:image/png,iVBORw0KGgoAAAANSUhEUgAAAiUAAAGXCAIAAADj5bdfAAAgAElEQVR4Aex921OUV9b39w/091WPmcn7FCc7klZohiT65u0kRqIJ6kgMMaNoAnESX2I64AkhIa0QHdoIgS4SRJFyiDCxLcIgBeh0GBNAIWS6Y9mEiugFFDeWcyOVC6tyY1Uu+GofnvOxDzzdjauqi3ro3s8+/Nbe67fX2mvv/X8sVib6z//93X/9v2WPk8///d1/RZ/ho5eDM73pgfvawodfdVuVJMJsKDtS/4XrNXsyI+PIsMegs8UdgQy7I+51MKEC1tJbB68tuP23cpxLQWomIJawRSSOfv4/McGIIxvyIM1z3Yp7J7Ln9qYXK2lSaWJryuVPcueb+U9gw5Lv7pRs3AMTT2QqNrag/upMcGomONqxxRCGipks0pe7W8dw3aboX1+NvCCaRukneeI4fVPjRwhzn7ELhTKoC8+GUII+j6zTxqnOshrGtGJ8t0xPXZINfFQapaOfF7cXiUCODd/o8OeGTMQfn9gqDDUs5czbmQFXZsBln2tArLOofPNG7or2d54sM1QxEXCxHNi7b5ZfW3B/N/u06kTyuSNXsCq82pYX36oqlF5Qdc7v6/H7eoaHbqBKKpGKUb5hNlS3+qfjo9PfacOt8PuuYlKJkG8chXX9gxMsb00Mt+4rYBRAW7S+ZLystOec2yqqPip1aL1S8nTnQ/e1hcOd3Y9pJUuA5kD11BHQ0c/qL8ZSy+FSYsY3pEn/93f/peBPC49vuL5LDZ3F5Jus25eKfru0rstExGUirFt/ecF9baHowxLZTxwUjCWtoORgxcsJ7Y/SIBWNn7g2OkpaxsY58yKONgQxdCLhm/wD3ZirQsHeHr/vCn6emumty9eSbLz63s4LI1MzQaVmimqb2l743YL72sPC952i7+NVbSg3fASIWv5/yx5X1s/hZxhxT4gN35DiFZiGtAT4RkOiZbcOX1tw940+rpEmOX7SIBWNnwjf7KofxjZBKOTrC8bHvuFAjpxvEGWOXO0oSqMk6jw2jBg00LOHyzxxHgzyjZV5rPa++9qC+2K/4spixKoHXjQZAVX9bGKfFPONwzbXnDu5OfVSVTbygH1scz+zfNKTM9+cc8+VvpWr1rKU83vsc014icXrmNtva5C4d5elNL9tv+fFCWpWnN8h8aelB9DyTOYZLkNlQtKxb7JXpl//KGuelOKxX38lJZvLUPdh7epfkGUj+bwR2sZNt9HDG68+c7v9dZxs+29d+aG3M3IEObsrN/92qeh2cVpL5fpfe4p+u7T9t671/3pZlINel3I+3YmMG1dTnUpKj4+b8qMHf5WgAugVrBxHzpbm7bvQS9w4oVBvc2nsfTj23Ud8YyMh6ikaudp/ZLtk2VyDVKQ/McUXhlBzpn01dO7/cvPYUE9joZ22aNHWSOx5+zp6R7HLbmomeCPY21Kdx9IDFYFxvkkrbR1FgIz3eZwSuZB/V38xqCg1xcRhfGnfcoz32o2PDns/EJpQpM8IuoqkReRfUb+aCU6N1eerdN2nvnnr2oL72l3nU9IETHHHUGgmGAq1H3xOpQNLX4FkjzICCnwz35x77+PMwFEHohxvzlxl5p2TufPNqy47cNdZlnq5BhOJxx5wZU5+koOSnVjRsIzvWGdc5N2sO/szAx9j6hKt38SAb7JzbHOIaXLufYRXejDrzO1IMSrL3Kx/n1h3+0T+r4hyXv0Pel53+8SzXbl8K94oXod/feOXz9fd9pKU2//jyuCKIHzz68XXf+vZMndi3dz57ZiZ1g+s5DPhEqs81OVjZ1rh+2qvlNWjpRG/byCIfU0CJULUE9Yd46Po16ErnA8n1P6OWoYRfb+6upOQWQB5inrJCof/C7GSlZKKoMnin9Z6fHilZ+i0Ei8Sbbg4/rTCJuqyG7nCLTiF2veKo/4k2llAA+J4gfyqPsxbw7xBI2gyxrkY+6zkswRBntJX9H+yF53FJmAoNDjASXy68yDXCj2+IStVpEfdwK4/1MfaSlSLpi5feS890MOuVC2OvMIHJ6LurdpwyC3GCCjxTVUGMmWwzXHnz0iDVxRncev2mzbb6eI/SzC+SkQ/JCXqH9hImveuupxD61pRvIq+QuUaPd+kXPo4d77ZMfkKC0dq+mRD7rw38wxbK2M9VWP9ZsW/u4p+u/TG3NtpJKucTU5EP1+/0P57Wijhm98urusiBPN72+h5ZDD95wP6ioE6dBehmeOD9WK7SuFF4v2Qay46Vw22vkOsjeeO+5EKGDq9SyGTCMeV3dWNFav/C84UYDaUFq5lwafZiklFVJbgJ9YmGDqrRDasxbYo9k1BG7Y2Qu0fcJaZo7B4l9QWNMQ3rNIfvcB5z+SAU3660qi5Ji+BUe/f1Y29yDQJtRZTgnF+OoY8kMMdL1PM9fiGJDPsT7NYnWu+IkuM0iUcsG/kQodvNBBQ4pv96egFzDdkrb5iFyIM8nz+AGaX13lLIvsV7C6rsZXjfly+A7NLZcYmTuNI3WVR841t+R1kVNmOc0VYGVwxx/UX9Iar4BWLVZ1vXnoWOdy+fqGFT0/oZPvtHbQIwje/VNo4fN0fbUEmTmMW943eQ4z4RjC7rOpDfDNydrde0caBqu5E5sh050HtVwSkwoNGXuF+ojaBqgNqMfkmrxnrZd0YPwN846zxI3Pzhr9KSroCiHZ2YJ9h0LtT8KUUmbB/Yo4NI3YRtiKNMFDQS2ctMecbRs/rG3YrYtc5oehkQiBcvlFaU1ltu9ecO9+wogGPpYb3sDONkBYZXTHnmxdWIINJ6RNmMJs63xSvQ8xxfrWbVxApAy0i80XONwXvrUdv/W31Yf4t7d6QDHyzjehNdf8+bSxHKvIm058G/VjjB/pdkiUTIVxE3QsYNFa6qQo7f8a7q3Uy1OWbq2PYTpru3Me5sGRN5sy40zEkflSK2KdHyq1oDwgnBDHnG2rfvHV0hw50QjnCMyAgQyA5+eYlbFE1rJpE23REH98zspEva7NgzCwO37Q99a5WocIatmz+Fwo23bxb+KXSs7Y/TaCdY2/f0KLHjq9WqhjfUn2+8R2jC+yqzrTFtG8IMuNdFYIOoNQiXb7pa6QrKGrONI5szpVl8PgolRX+r/HgG7p+8+dDsWmCDv7hYwIZJgsC4fINQ1dr5P60j5eT4wOoP+1AOh8tFnP7hvjTwl6tkY8Wdb5hV2tk/jQ+hk1u31B/WoNxfxqNT3vXU67TY6Llm/yqHrQdZNzfJt82r1O0lcyXp9v3ygEUfmOAb2oYC/Uy8ZFp0tI17ZtoFgy2nMbL7P4vdFZT9PnGY7Hu9qpFpqWV1l9Fy10j3bXieAohVpGLw0FWaxT8aZwBGmv7hsan3V/7krAJ6JkVR9DLLiZJpQnkAQgIEAibb4pf1YsXIO41r93HBkmf2Y89bPz5AmT9ZuUlcnbLspTz0gSkW5OggFw+KICvd8qlo8ifNrcrlWO1bFtqOVui4U5P+GbzqIIX/snQRWPxAt7sN0jFfk9CDLbP7eEXt3RrYv34LtrcoLv/Jkq+ySdL5XidOezlBPsBHC8wPtCoGS9AD93pPSb3MomoiC5+TAW5FW8RSpp8QyMXIjtUpoA4BkPtNLaCsViV4gUO9qO1mbELRXx/o3pWZFtwUXbCwAeWbIa6KtTJhrFEIw76rm68QNBbgKudVnCExNFJtnZSN6m/SsO3iRGgXfQfClvEohKHDF5RN4BflyICYfONRTEeusZWwQeGUZ6Y92ZNkoDpkxK+SfFV4dWX4yii+o4nZ16agA7v0tcxt+F8ApWrJl/l9TgbD507X4MyCXyEIujmj9KYBeMdt6UOb6/5evPciXW3P9/829/4BRuleOjXbxfzsWc0Pu1S0W9f5d8+kfefr3A89N9Wu9kANkPVSG3Z7NfYvy2Jhw4NkvDopjKauUw7K/vT0mrxmr/mNguN/s3q1uDEGB8PfbWNDYii8nqZLMiHQnh3fbC3qYBFQMQ3Fisb3CVYb89zXxAdJzMxRv6tFwd2v9yCbZSpGf1lGIXmsOWS2HF6AI8wkpgoaBIfMTM+POzrGR4c7XGxWYn4Bs3uJbuICo4M4EC+QJC2hQirxy9phSUqcbCtEMVDC8mbPW0PYTiMDte5MU0YVGzabqOH8rEyHe/zKFh+tH8uFJZJg9MsViY6cdBuw3YS+HfpIxA+31gZy+Mp510r73H7PV3p5Y+LkUpNvVyBd2J6c+YqbA2r0TZS4flp2SvTAzV4447XMedKL2fSJ8UJuC7I7xttyp7bnfYSO/ItViZ7Zfq3FVl0V2lTNtp2ahNXQ5CYy1D68PuMnhMb8W7Not++fu2XxtUtbBi3xcq8+9rqufPcfs/1o6+lyfd7/lL71Ojnr+KdN9t//Xx1Sxibb2htrYdm0REDyuenEd8Iu8uB26PHLdgY5BsrU3QOH6/CR82GiZV995Ge4DjZ7xmaVtrvyVis+Qe+ZPeEhqaHvqx+kopAwjeMhV3h4Gwmqsq5BrIP0tPYaCzWdGel3Ioy0iI72hg7hlkB7fxX2u+JiOSLXuwuQx7IseHjbLS6hG8ExDl8ZIPdYqXNRPFjok+otVhat+jE4Sis8w+hGAH0GR/1S/beMq81+kj9Q9NoF+1TOIBNYt9YGcvailb20J3gjdCgr7Hwj5J6OtOb0bHlh7/qVz4/jYoj1vu9jIxcSJOECIj5JgkbIOUPE5sgX7+JtDImHMRL9uVM+2qSfB/43h6lqbpESyb+v0khDufjH2rMhDDIRBwRT2JMHK2Rjs3E70vJVEPgm8ilFTu+YSzWkpxzaCJ5cLEO4sV20kSP+h7yyHEwcySTNf/euiRnTRKCkdjisL6P779RNrtpb1kq4kiOzm/mQFuksoBvIu9qMeUbxmLd+MTJCfUrCSKvJ+o6eB461LJtkbqRWdlis+BG/wG9JW6z6hOpUJJDHLodcqmIA8wssxAAvolUZViZw++9cPvEun/v4iMIEl3NmdWrAAdAABAABOQIAN9EzjdyNOEbQAAQAAQAATUEgG+AbwABQAAQAATMQAD4xgyU1dgevgcEAAFA4NFBQMQ3K1Y9/ei0HFoKCAACgAAgYCYCwDdg3wACgAAgAAiYgUBc+WZZyvFNGb7nw7kHOiEjrDK2Vx+vbyxROITNDBHGZnqS5shI9iBj1DccGfbkwTwhO3NsuhM0DRBQQiCefFNMjkdrXnU5/DNgEmlU0OO2gj2eRKoVVrv0lE/ueBXZddSoT5Ajc0KtYZ/jaZ5mJ4fCcYfEKN0mJzsyR6m7J5yAoJKAwKOEQDz5hl5N7bX7Ijj3LEZC2mpLbd6UWhpVbmXtE/gYK5/eRV5RlRKRcs/3tJIjI8ll9fLrqFGVjPJNxvZG3xhqqZK6j6h6hgEpafKTEzDR6ZPKFTDAN2kFrpbhIXRXKZaX7NgxYCNAABBYVATiyTcWK1P8TNrxFYurqjThk91sbVgDirK173YdLHUksj9K7ToDg3yTVnDAh4/7xJrafL7h0FY+/Rq1Qo9v2JsC6BHXw+TIzlD73sjO/Yxjp4WiAYFkRSDOfMPpkTg9xIhvImMpM9+Khm/+WNtJjiIOjPn8+CaxszG+I9m49KPgG0SZgjvQ7PSEZt3r18wUE5QFCCxpBOLDN2f24/tvmunfwAYJXWMa+MRWYUuj9xo059yrWC68YufyJ7nzzZlnyMUHzbnz+OIDN38tQgpOsOqyg83Zge9EaM48Q8RJ/xVVY77Zcf0FNr0RqUtWR2TnvZPj6301+PR44sYJBTsr842rV4MpM7Y3dl5l7Y8QPlhesmweDt/I7kOzu3zBwbPVeWkMadFi2TdSf9ewd18BIxaEcb6RXU4jk6zaUdNppd5h7LXrqla4D0ZcH4MCgmSAACBgsTLx4Rt3YSa6JM1ln2tAGl+Zb06smjtJrlOzz3lRsntvp7IyI3TiuHcyd/4TO8oHJ5ivzNhK1YEe39jSv8UVuIc4L+sOes4MuGxnwlpJ4lZHiK5X4ZuR0WAQX43VS304w0dWy3RfFFrMcbB/hCxIkPvB8ArH4KdiVjPMN9pqejH5Zje5hjnIXteG7tqZ6Nkj9lIa5Rv2grih06USxmK7EMMcG0YLOaMdWyTgf+RnAxMUwytiKTuuMvAACDwKCMSHb1hkCSuo8E1z7lxx6nNYF2zagi/6rOGu76Qv3tufTggGXfeJmMN+iRKGHt9QFRMjf5rKjff0eq4bfnwZF2OxVrRjx5TPHTudlUaj4wbrOVPAnle8W3qZsUG+oWp62lcjpitWIy8e39C7QSd69nCWmX130WvSxRVDfMNe5jYkvOmZbQLb956rwrcsj3zJ3pTKJQD7hoMCHgCBmCKQyHzD+r6sjGVDJrou+hNbBW28jE6sqZePC00lWQKJP43mYwbfCLxPemvaEYj2YD+6f+xGP3fnMatPxZRmhG+KS1vxpZAaanrR+IZegTzYzF1BLa4/i4wBvsknRDLe55GSLpuJxco43H6Mm78qpramMviCciEBIPAoI7Bk+IbxVSK+mduRgsX5qPANufAqeLUtT1upGeCbQRwLoJ3VovENicme7jyoTDPcENXlm0H/GPKGBfpdYkcclwN64Mw4d7Lf26YDl6jV2j0EfgUEFh+BpcY3d15/tPiGuux0g6wM8E3rBx4fCmpQdaZZrIsXL0D5pn2vjgLV5RvfMT0rjSObY5wHUqdQ0NqAACAQEwSWDN+w/rSXiO5IKvsmmgUDN17cDvTs0Z6bGOGbnayXaSrYWixdOCG9Tdu+cdb4R0IzwcBYfdhHFezyYlfe4Kc6Boc+39Qwlp0dQyiAQok419Z2oniK6cFm1TgCCysOjViDmIw9yAQQeNQQSGq+cUy+Qmem2attKNLMaz/PCPnGcX0dTeAuXoVWgLh4aKqd0wMosE0QNq2ttdV+1YwX0F+/IWswSEWGHxCVVtuJjZLeOm62rhQvkN82iPIfPqLgZRKeL2AvOhtE/qgb/iql4+A0+Yauwajs/6eCUBtgL7fgcsd6SjTjBVzdeAPQuVJZPqK1MVlINy6dJZveT3epBa2hbKMRh1oPge8BAUAgQeKh731EwpGXu6lIZMv4yvECufPNOejd/fZ7OB56bldqNivUhj0ORDAnVwZcmZM1OfMnHTj0WRCDgFM2vIeTNa2adGUGKlfN13AhCTr6ESkmSTz0jWAvPjym1U0XvWXaWaQTeY1ZQObjBpb92dbx71oZVrfOjFwd9vUMkxNfBpu3CdNYrNvqr+JzXMaGfT3+3tHh+nyugUK+YSxWut4eHL1QxJITd5xM7yhS9+OjKBNfz4UqPhPGYrUfwGQQnJrRXfYX1w3XhA0qC4YwjFeCKB76hnQZhqFkMD004PcNjA11cWcISbCVE2dZK44UD2IEyOk4Sq1gLNGJQ6FpSlKDZIDAI4hAfOwbyX5PbHkIjQ+DfLPq+qu2SU8Oet2bNbkrld18g/WXeCtog4043KR8Y1mWct61ktDVfFP23H5bg/EtONRJRc/jYjdt8MeLGeUbq/3IAD7Rq7tWa96trrbQyWaYCbBporTfEy2S17Zze0IDwfZ9q9nuLuEbbjl9ZuTLsgxcKPFicQ1kH2RHfBZfwDuBgt4CjszCeUgrcJ0dHuHPN1PY72mx2ovqh4dCGPPQ9MiVL9jdMxK+YSwsgY0PNOYh4iTNlApLyeaj4lAIlVYXAQtmOO2F3ACBRwyB+PBN1INTtjyT3GIj+3Jk6jvZGuX4FMWGjfd5knxbPhFHpKyZbFKLejACxQICRhEAvjGK1CIOy23Yn3alMcnVNFPVMxOcCrW/kwCQRqP0l4o4FrHHRgMvvPsIIwB8E3/liM2C6c5K5ZCw5NEa2CwY7ng5yYfTUhFH/Dt28nRdwMokBJKVb3x7wz/uLMn1IIxeQAAQAASSGoEk5RuT2DipRQuVBwQAAUAgoRAAvgHqAgQAAUAAEDADAeAbM1BOqCkGVAYQAAQAgbggAHwDfAMIAAKAACBgBgLAN2agHJepBBQKCAACgEBCIQB8A3wDCAACgAAgYAYCwDdmoJxQUwyoDCAACAACcUEguflmqy21eVNq6WJurDGhCF3BM0/lb9nrOVCsc1a/bj6QABAABACBOCKQ1HwjO9Yz9sRjQhH6Bpbs3E/9V+LYpaBoQAAQAAQUEQC+0dbdwDfa+MCvgAAgAAgYRSBufFP+yoo75CqB5px7RzMvOYU1lml5yf03DtscujxN8nFcf4HLhBwgnXlGfCuB+3FJAsFNazRP9sIC/SK4rDQf1lZ4B/BVLlMzwRC6KWALe6mM0vXM0kP1lS8CuNqWJ7Xk8qt68M00/rZC6U+a1YPEgAAgAAiYhUB8+KZiF75t05t1Z39moDILX2CTLWALPb6xpX/rygy47PgKtaw76FlynBrhG8e9k7nzn9gDLvscvpBtvjKDvSNHdqOBhG/0izCgx9d6fOQ2F3RB2fBQAF++crWNO9FS5iiT8g256Ex8y5nf11QmtVW5K8Kmkv5SA2nTzBoJUC4gAAgsNgLx4BsmfZLc4pxDVfbWLXZEOUdt7Mq/Ht9QHSRLxusmQie59/anE4LJziEmkf0SvU5Nj2/0i9Dnm5IvQ+g+mIFGJ8ktraIdXTHJHwWtyzdE/LJk8qLzq3pwWWDf8H1AjhJ8AwgAAvFEIA58k/1KJmKXj5cXc6phWfokco6turySYCEjEok/TZ8MZHRiJfd75gY2kCJkCST2jX4RumIrbR3D7HKQT1l0DrFCsMejQiRS+0YlGZ/hYs9HIH9AABAABGKFQBz4hjrT9qcL2pD67Ync+WZuAWYx+IbxVaL1nrkdKbhcE/hGdk+zlSE3YAbZBRiZ4QJ8A1QKCAACSxaBR45v7rwOfLNke7NgBgNtBAQAgYRDIA58s4ms1ij407jFlcWwb1h/2ktEBibYN/i+y6npTpk/bby7mmjG2Nk37PpNj4euFXG+SngABAABQCAxEIgD31hsy+8YihdYeSkTc8OylPP7HWjJ5xNbhQi19ADJxyGncUInjslX6E/Zq20omM1rP88I+cZxfR1N4C7GIXPNbDw0LUijCHmh0m9cPhyjrBcvMN5dy+DiMt65MDSFYth8NaKstpwOolWfPg9JpjCLz28bxC8GIT5N1ENEMCrgBokBAUDARATiwTdWRikeetVlNlzNYk3xVeG9NcftAVcm2qZzUpFvmIb38PdNqyZdmYHKVfM1HCERvsmdb86591FmYL/9Ho6HntuVms2C27AHv3tyZcCVOVmDisDR1RK+0SjCgC5Tioce7xOYIPv6xxFPTA8N+H1XgsGp6XEcPy3hG0sBpZORqyiuenBi2lcjPtsmrbaTBF5PjdXnG6gYCwKoYEAAEAAETEMgPnxjsTLlm1bMncxBVgva77nifJZIS2avTA/U4F+9jjlXejmDA9ik9g1jWZZy3rWScMl8U/bcfluDONz5+qu2SbKr1Js1uSuV3XyDyxJvBW2wEYeblG/UixBVWE1gzIbq1iuh8RDeeRMK9Z6tzhPs97RY8/ecHR4hv04Mt+4rKMEBbFK+sTLODy70olhq9BkfG+us2/2kmDNo5NuVRof4e7WKwfeAACAACJiMQNz4ZpHbKVueWeJa+LnjftHOnkWG1xDXQh0AAUAAEBAiAHyzNFQnjr2e6ClZ4rS6NIQFrQAEHlEEgG+WhOD39oxPzQy1bBNOJeAZEAAEAIGEQmDJ8o1vr+REtSXBK2C+AAKAACCQtAgsVb4BdgEEAAFAABBILASAbxJLHgll/EJlAAFAABCIIQLAN8A3gAAgAAgAAmYgAHxjBsoxnCBAVoAAIAAIJCkCwDfAN4AAIAAIAAJmIAB8YwbKSToZgWoDAoAAIBBDBIBvgG8AAUAAEAAEzEAA+MYMlGM4QYCsAAFAABBIUgSAb4BvAAFAABAABMxAAPjGDJSTdDIC1QYEAAFAIIYIAN8A3wACgAAgAAiYgQDwjRkox3CCAFkBAoAAIJCkCADfAN8AAoAAIAAImIEA8I0ZKCfpZASqDQgAAoBADBEAvgG+AQQAAUAAEDADAeAbM1CO4QQBsgIEAAFAIEkRAL4BvgEEAAFAABAwAwHgGzNQTtLJCFQbEAAEAIEYIgB8A3wDCAACgAAgYAYCwDdmoBzDCQJkBQgAAoBAkiIAfAN8AwgAAoAAIGAGAsA3ZqCcpJMRqDYgAAgAAjFEAPgG+AYQAAQAAUDADASAb8xAOYYTBMgKEAAEAIEkRQD4BvgGEAAEAAFAwAwEgG/MQDlJJyNQbUAAEAAEYogA8A3wDSAACAACgIAZCADfmIFyDCcIkBUgAAgAAkmKAPDNkuKbx8r6c/Kcce6Lzq41+8sXpw7O9A/7n8hcUiLTBiohBGpVAxzEoYZMYn6vKy/dBNG26xHnm41/sEeLoLa+MPPXxypnD19bcF+eSFdVEJqNTSsoqfvi+L5dTGSvk7ec3UXfLbivPcjfrliWo/DgF8frypwRFWEtvXXw2oLbfyvHqZh50nzJ2B1GQI5WoNogpzky0qJCbMmIw+AgXVxxaAsrFr/qyks3gUGgNJLFhW8+O/T9w46bt7Yqg1h36IeFi7f5j+dYVKNCpfG0lMXJnFbYUTfbdvOht+WISh1i2S46GL6bXROpfZPXPBacmglOBb3bIq0YJZuHRR+q2DcH+8dRETM+d2RFONObHrivLbgHJtJTI8thMd/aeWEEtw7DOBOc8lfJe3iNH/06dqFQ/pP4m0gFurt1DCHMfXw18iZ7fChBqHWn/KewvklscYjxjHIMqoujrHV0ejzQfyCmxUVZW5XXdeWlmyCs7qGQOC580+1BdDK7U1lC5dvOz9b2zdb23W37CbHO4lCCUb753Svth759iPhvsFtFigqwkpTPnntw8fZC27k6nRfTyjefu9uhhYlqETRn5zdvXUNWxfrtkTvTHHXDWEmN1efrFacsuBJn94L72kJpk3p73+nBGnm6c19kRTAWa8nTnQ/d1xYOd3Y/plyNiAeKg6MAACAASURBVHOO+sV8T2uP39fj9w0EMa1GwTeRC7Sg6hyuQ8/w0A1M7VHwDbOhutU/jXpFn0elDyewOAx3D+ap/C17PQeKn1NpI2PREgchbyVZiyuQsb3Rh6cCI2d3qxYkfiXMZI7V+aWuYxUva2WiKy/dBFENkwTkG649RikhTKmQ/I1kvjHvDKEBbGwtDt/8Yc+o9yZnzKlxMIeJ4sOOpzuRonc1qyt6rS7I5WnP+9/qPZsdEeHJWDlvnqblkbG92lX8nBFvkmo1UtsLkcvuYeH7kZOrauaGgOIQU3mgho6SDjJk38REoNTQidS+cZS0jBFjVJNvGEvii0NPpoVnQ8GpGXUa0BaHAb5JKzjgQ0WQj3pBKt1Jr/5sZzZQE6sBeS2mQIFv1GR85L1rmAZ+flA7eH+R7JtnW3DOtxfa+mZPRWzfbBwtvbbg/u5WjqaiZzulWnuj/L4yrw9xXmGZGRzwWO195FW72G81OhSjbF2Yr0fJN7ERaDR8s6t+GCvHUMjXF9ThGyuT6OLQ6yQ6fKMjDj0t/8fazgAGMzDmw8ZinPnGgLwWT6Bx5ZvX+2u/x66qnx+e+rrLLl291DFBlpePesjrtxe6frzvrjvyO0nHSivffGb2FHbKXby90PX9bNnBcjaNNPPflUy0IY3/0HOshKhmR8vdtr7+Z+2M5dhsdHzTjtxlPyP26vrxbtmejbzq3zrq/X62uGijxartY9TSd3RJozNsdx9Xjao+OvMi8y/ZjBiPqLELRRuqW6/QadrIlbYioby2TbiQQ2/2aRXOI0NafYpHlKO/yr77SE9wPITrM9p/YK1Kw58i/sO7zqdUEkh6Qiz/teft6+gdxV6mqZngjWBvS3WeEAorYwmDb/Kr+nBWoxc4PA0J1L77iG9shAA1NTNytf/IdolhGgbfOGv82JQJthbbSa94uXlsqKex0M5YiEGm6k/D+MdRHGsrvANshwmFBn2NW4SykFWedHVO40t6Pu2fV9vyBB1GTxyUb4681ugjvSI0PeSrFXQJu8sXHDyLOok6sdm3HOsfnKDDcHx02PtBPjc8LVYZpUmsZOnCIclnuvOgyujQlZdGgrRSL56LjHRVOwQoCWqrUihOHEe+edj100LHyGztP+/jpYuFrt52lgxIjaWUIGzS8mOzXYgeFtqG+By8zZWCNHXvjhAye1DfN1s79KDr54WLP97cQLujOPMXuz2Ylk6drRPXAdckOr7p+unhxZ9RHeppHMT997bKRRIx3zjXfIUMi3c9Kkv0BvpESZO2xx9390AQrQeMDvt6homaG/myjEf7w7vI4PjH6OMqxeW5L6CFjR4/GVTcgGdzIMoxNDQ6E5wY6+0ZHiJTwiuNKn26bv1lbE69L0dycb8pbKJeppErfh9dIwm176VqmjbHKN/Yi85i6yHgr+KZ1YBAV1d3Et0UCPb2+Huv4kmA/wtx1J9RvmGKLwwhV8+0r0ao41gYZSqbFRmbAEk8TuJY6/HhNSrSLWmfudrGL2DIKi/hG9LzyexhHPVtPBCaBB3bqisOQgbT4zdmRq4Os0t3M+Pd1XKnsQrfsN0gFBoc8PvolG668yDXqfT4hi4cjuHF0dAgaUXPhSrVhVhdeakn+AgHvKAOo+QuVhn+XJ+JI98seJuoRbK87i4mj9mdwrmJVUwJopZ8VvUjIpv6OmqL/M51E5HWT7e2sjk4iKvqx1ubuYhn+5HnX+e8PYLM0+oOfY+p65wS2VijtW8u/nBr84t4cKbRQpUiCCLmG9oziiqF4z+yZzUNRbr7zNC5sgwsBcenOJJttGMLKxS9OSBfH8mAZzsiLXq8r5FODPf2qC65o0KpFij6kBMoXwSb5yJ8U9A2iCO72j/gjAlHYbEsgtwY31Cr4oaQbHjdrS5Qu6sbm0T+L7hJNLOhtJBnLNJwNWky7HwZx6dRla1CNlZj9k2cxFHyJSLa8YFGSrRpFe2Ihqc7K1lNrcc3pKuo0ACBUXd8Ub4ZrKfdwHlsmHZdVhdxHVK5oNWNvbhTccalk4yv4Q6WOPX4hg5DWTJ2eHIVYB90h496gqS1b4Rr40TbPqxyCXWEgBIkwBHf10/CiGo2MY3GKX9vBFHIqRa1WT+b/ljJzkFkBnUNdi+XlML9G519I2SXZ8+iiLWL336TymVOHxKfbwTTGYk5b2VixDeCCF0NlY0RoyESGrFwUoSFXSvCZxoyLva3sGNYkKdG5VnoiqhVwbuw2Hx0FVx1J5rUq3tLaMMN8E1xaeso8r0MnS2VT8ZpfWQqm62noL1WJh7iKMWR3yIcis5hU6+HjaaTVV5xuqNMAxRGXXHItTxloPa9IogsVmV/GnMMx4UKO1UaYSBuZ4KsCLYXiaPqZcnUh4CuvHQTKHYD3S/jaN8I+YbT/kIJKX6JExAC+GHiWR7QHe9+KyQYor4Xag8LMxQ+08y9395FBHDz1mbZZITHLnZ8Q5eCRDUntQK+Ee8I0VDZSOh0/vXW0R28mPjOIBR0LJ+repB2Hu+u1ilUo/JUU4wNYofhYFOBLCs9BbetA7u/dMPW9flmkMQ6CzWdHEOZypZVOF7iIOpVMEexMtTy5lokq7wpfKOKvCKxkS/FEecV7ah7cFQqI5Jo+UZ3+OgmiHBYLW2+kRhMQoxYMqvTc6ZF7U8T2jeLwDc7yK6XWGhetXGi392tR/H6Tfc3ugFjigPeYiVFC3SHhspGOpEq5T8fEsp00Z9J5ce7KpR0rqB0jcqzmmIPWaKXOtMYi1VPoDTzseOrBSXKeYJCOiOL/hD40z4g6x/qzjSj/rS4iMMcvtETh3wxXx35hOEbXXnpJtDue6q/JgbfpJHZ/YNDJcKKspQgP1+AW63hhxlNzBo0R8rwkoy3QW3+K8j8TWlkmlSbxM6+ITtAL/6zXxaVELF9Q31Zh8+1S6vNgyNEVeM5cr6xkPi0725l6RUaG76h8TP3174ka050/mVtDLecxsv7/i9UohjYyhjgm0Lrc1U90sg0UjpxTqoLlOjZabm7Rlx5NWkK+GYn43BLI9PEmRhbv1EXB1PcMRSaCYZC7QfVd1Pq9RlplWh6iRGAwCf+NN4AjYF9ozu+ZLOxNJYIi9n+wDZQkW+kNpmVsVB/GmfCyopgZy0R+tPU5UWh1kjAjq+h0+o+WLa9csHFkW8eHCqhi73LG7BTS7Qew1isdA2mvk6+JtzuxuFkWvECZ/DWlh9u5unGC1gZNtqNr5IIqej4puuf/XRlKK2FhDkorSpFzjeWN2+W6+6/SSutJ86T4Q4u7lbURtRF1DSUke7+2Wa/of03MeEb68fq4XDskTmRxc8gTNbWdpJ94D0eccQXYykgvqxQ+zua8QL5JKxg+IjcSSvUFGl0+WS8T1yQjkDtB3C8wPgAG1thZZTiBQrqryLvX+8xdvGc1wKsQkTn2bDBUQqWFlaXMpUt6zaMhjhoaIPWCQVSpSzNX10cLh8ibP14AXbhndnQSOLZJOGRdBrR51FexNIRBwsmG0pOV/tv9Lt4wGkbFfnGQntLSC9eIOgtwPmkFRwhMfTSU5HYmugdU6QhLwK+VoLoxlcc+QaHhA2hSGW0gnJ7wdtAg824DkdjzHAwce3Qg/pmfvGfZQhhPDS/dQblwEadkVhkGg/NB7AJ7BvULZzP47NnLv40u5PEklkZR81NfKzObC2Jq/7xPvn3vT16I4TtZ9Saub1w8cf79X2zp8g5AnxMNmPZ2F2FTu6Zre0jQeEPveTf5s84EAw80INk3vUIw8HFlaQHySAFJHewSOKhR66S8Oi2EtoQI3zDPEZcaioh0ZJ4aDb2lAvZDMefltqixW2UEmaCSgPeAJjMk/RcH/F6EoWC1c5TM0NXuHhoYegqgX0b0fXBMRRi2zs6zB8RJOQbxG00ole8Yq8nUPYtHDvOxkML44BxbV8mB+KFQr09ft+VYC+/ViRRTAp7gDh5+Uiw9cQYiRWuf0fcr9B+dS1xvNyCLUIji17sqJHISEscHA44TJ/EQ4vIm6rymRG/3zeAtiuN30AUJeEbCw07xAHNPcODE9O+GqE1pi0OAiYOu7jCRTPPDH7KB5ez48svDrzmOj/bqUTx0MJAEjp1CCIpDKMdBTemUQiclG/YwMUQipL3XQkGR5WO6dOUFwJfO0F04yt+fPPDxLa62Ta8C/LiTw9q5bs1Uf8r2fr3+2Sn5MWfH576e/sf+E7ptB+cqP8B77DB+ygP8Xs52SGBzyUjh7Dp7vfk+Knrn/1k5ynPFpgOCSmGdZ4bycHT1H5oiNazY2iCxkaThlBXHqJb0Sfcs3O2TaAjBjTOT9O0b4jNwW3GZB+4gDRDfIPWVAaQiaN4fhpdFEVxn8IPt2BjnG+c6c3oyM7DX/WrnJ9mPzKAihjvrlWervJdiO0nkm/UJ9RYFdrz9l3oHcOusKmZYEBpvyc2ktqJpsZp2vetpmpUwjdWht1rKbSZGIuuQIUbY0PTSvs9GYs1/8CX7J7Q0PTQl9VP0pZK+IanvZEvaci7irzkkxU9cVDXkCBGWYK27r+a4kAnvF0J0Q3CoVAv3lYpYCz7lmN+5NDDO3N9dbsdOBhMyjdWxvnBhV5uu+XYWGfdbhYr3Em0xIHBHLtwQFjQMVGIvMr44jo/Y7E6Cuv8dP/Q1Mz4qF+ye5dBm0lxK0LTaB/uUziATco3jCVtF79dOjQ9NNDh2iDp5HrysuomoONLtP1OV4hsgrjwjQQC+DcGCHDn1z4dx7P6ufOhK6WmqkAFRNNY5+Mf4jsXvptVbyZx6wsHczQlxu3dhBAoqyZUxGdAHGQflVwz6uQcN9hVWsokgzh0QdOVl24CxmIl44t17oUpR+AbXSElSwJnuuc+uv9mINL7b8LsOsojc/vo2/j+m/XK999EBab1fXz/jRbZMBYSLqx6MEFUFVBuckxwU8gkMQSqUDGKoRFxkKWR3jqheyqJRCCsaqKLQ7dz6spLNwEqIrrxBXwj7FLJ/ux8/MOJtVFcSaDbZQ0lyOtf74nypGo1QWx84uSEumWD3sLRPlF4b9TVq6G2x/j1xBCoaqN0xfHccT9aSDsgj5tQzVNN9InwfYKLQxciXXnpJoh2fAHf6AoJEgACgAAgAAjEAAHgmxiAGI+ZL1QbEAAEAIEkQwD4JskEBtwGCAACgECSIgB8A3wDCAACgAAgYAYCwDdmoJykkxGoNiAACAACMUQA+GZJ8c1jZf05efLjf8xto7NrzX7+JIgYdlaTstrev+ZNwR2sSRlJFY7EE1xeIA7zeqAz/cP+JzI1O0904njE+WbjH7jT1cwTqqY4o6gG3ZJ2OdL9N2kFJXVfHN8n2hodtoqnWz4f5C/C/puwKxMBmNntBegguAeFZYu0ZXWxpC8FJ82RYSQKeXHl5ciIcnwtGXEY7IqLKw6dvmctxfvb/Ldy1PaMRy2OuPDNZ4e+f9hxU3hbmhAIerIZd76LR34+tEHhaSWTnJ8mrEDMnh11s203H3pbjkh1gVbFIiyd2/+8JlL7hl4mNsXd8hR+TbjzBT6U2DcFR/pC44Gx+m3h57kIWOmIY7ve4UDmV4kvkZ6pyh0LJD8NT3R9J/+iEvKq8lJKLMhKckCL/HgY9bNfdXJWEE1CiyP85ghglDY2UnFI89EoQucnJ704cWAiPVWladGJIy58o30Wcvm28+QIy7vk6LP48s3vXmk/9C0+/SzcM82sDDk/TXT/jUTeaeWbz8yewmddkxPeiosi8uQ4v3lL+/w0SblK/zroOZXcKegqHU7pXdzj6bGGSuenyY5HU8kEHYdFzrHuY69oVEkZ8RjLeL6g6GDjns1arePIW3tvacR1iOLFgqpz5DTV4SF0y6f8QDPRdQOaBWnISwsci5XhDqBEZ0fKj79EIqO8qESHbOZpBa4W2gp03p3s0DCu8gksDrYtur007Tnntoqqj0rVb7KIXBwcUHoPjtX5pa5jFew11YqVL3m68yE6n7CzW+V8wqiO9klAvuFQWFQTxEjmG/PO3O3gTtKMOd+k1b3Hnjxd3zdbf42c6fmgyhXuAswOevlrc5S7+u15/1u9ZzN30j4nCEMP1kp8stllxZmREb5xlLSM4Yvf8bmEi8Y3ZG6upQeR7nBmncOjLga3ChlCT09TyDPRUOiy4ziVtKGmvOTFKX9DwIzEvkkrrb+KzzydGOvt8fcOk/NPQ+175bcnJIU4lPHhxUquRFI/Ry4m4uCLU5I4a/hy5/Cq1Dm1vRAdSfWw8H01RRT56AC+UQHdeuS9a/jM5p8f1A7iq3Rizzfl275+0NbbRW/HsTqfP4+vZvj2m1Tl7qJS1Y2j6HDo727lqJnAYeUWYeLKvD6N+290+WZX/TA5/jbk68Mn2MeZbxiL85u3kcl4d81TKrBHCFSscouSb7TlZbSSUfBNwQFfaKS7lr1hyE6uSguq3WWX6OLQQ0yHb2IjjtjwjZV5rPa++9qC+2K/6nW9kYojrnzzen/t93hS//PDU193kVsABJDpmCDLy0c95HV0H8F9t/xGA5m3qoy/s0Ca+e9KpLd8OlrutvX1P2tn6CXQkfNN++Zzd8mtCl0/3i3bo+4xI/eW/jDxbDi6jLpcO7sF0On1fnH+Ene8bO5PT1wvwme/k5WDkSttonvbyP2e12afVuY8lm8+qGi9EmJz6CgRLCa/3DyGDlq3a10o6fygg9wggnKYGOsUn/ouu8xKopHpv9zKB3ng74IUY6J/r7M0fXiYawsrY3tjJ3edQSg06MPIiEqUtE5YutS+Ya88EFypoiMvnJvU3zXs3VcgueLBON8wxReG0FUU6ndX65wkrXuvsxCBmD6n7TriE1zrMNCxZ60gf9l9dFJMSALRNRwzwSmx11pfHPYtx/qJ9xL7Hoe9H/D367DeS8GZ6JIbZum/eErH12S686CgIcLeRe/3vOtUnWypi4O9AHSkq1ruPIwj3zzs+mmhY2S29p/kqrGFrt528S3LUkoQDlGl+9YWvM3CC8fq3iXeKva6tq6fFy7yd52JM3+x24MXUU6drRPXAcsjyvs9f3pI7nyr/4FccnP/va3KYv5dHb7n9Puw+Ma55itkWLzrkSzRKxchxJB7Zt3xaksCWH8FgmjBAF9sNYIvFBFdgPGh+oWbqB8T5Tg9Ls4hKLsiDFVJNoBJPVmliS86GwgSz9tg0zauFXp8Q1c+6JIDvVPO3+ou4HKQPOjd6xwGwpKctf91HOwfwUphfHiY3q81Jbq/C79ulG+UFb2OvJDIqL+Lva4N3TEz0bNHHPMm1a28zhJXj70YTeMSYgbfTBMc7djCZyJCOD7iYO9gpVfb4Ytfg4F+F4eDrLtKMXmnDV1VR3rsDXwTWo/f18NdZojbqCMOxQvZhLf8EbTV+Sbf04oKHcP9KjSInv2+Hu7CNxHOuHfVrb+M3RXvy3+i36iK4yM/O6VTcNzFkW8WvE1HiHJfXne3Cy2TzO7kpIj6nJgSRL3wM3Ixs9Z90i3YCfbjrc3cJNp+5PnXOY+kIHP2JtC2c0pkY43Wvrn4wy16x1oaLVQlgmDHzkFESB1/D+tyT9oziipVe4a2dhP8KtYRPOBkvjwzdI5exkVvXBeoBj0bi+Y80lVB/CdM8QXS9Vvld9/KBjCuYVk7Wpqe7j1Gp3XM3h6Ug+DsYT2+ofgQdSCz4ZTQI1rgq34BRErJeKBi8WtadScOBBis54wJe17xbtbvxBWhJixxvABV9FKrQk9eDL0bdKJnDz98dhe9Jl1ckepWHgpB9ViVLb7DlGsIeXiuCt+RLJrE8LnhNPEQBw2iGbvAWvP56MTrqZmhFnaiI+uuypho+tN0xLEa3642pXHhNEFbnW8okmQgK9CArIfTWWzRh5zClMiLsaiJI1Htm9mdfH8iEWsPq1zCVgkogU+JExDf10/CiGo2cQ3Jofy9EaS7T7WozfrZ9MdKdg4in17XYDe7jiKsA36Ozr4RssuzZ1VXaFJrZhHp/jS7bY2sApLmi/41jW8E3ZSMMcHip86AofaNYDxYd3nxfYWDn8puRpENYDQYCD+JrogubcWTTZ+bwhV7vqmcRV7siPczicRkWKbkfnhRSxXfFSh0aUGsP624tBWDLFf0evKiFxgPNqsaf0RDKetWVB+uevSyatE1z9IKMw63HxmsN/xVqxUbi7+MgzjoXZZCHKR2mKy7KmMSBd/QEq+25XG40VtTua0LMecbhoYgNamHIEUkjjjaN0K+4bS/sLcpfokTEAIQrXPsePdbIcEQAluoPSzMUPhMM/d+i11YN29tFplWwpTR2jdCvqFLQaKa47KoQ++hp2aHbK4hrgzX5+hDkvINozws1fxpMoazWPHdKlMznC6IPd+QGVz3N6qrplJZaEvK0K/kgrKgULkol8IpdHm2lG8GSWS5UlZ6fENyUPfvs1VSFSLLN4P+MeRdETqg2Hf5fs4ZYW7Z5EOYOA7iUAKZrDNxE4LF5xvSsYOiCBpyySYnoJjzDbVv3jqqro4iEsfS5huJwSQcmSyZ1dUd+h4RlaozLWp/mj7fcGRTV66weiQccgrP6gt3ComFCMiflUYXykRmhsu0v/UoXr9RVc2y8WBNAr6hSrkj8kAMXqUalgVVLmphWnw+asLi5BVq/cDjQ645qTPNYmX05EX5pn2vvJOIvtHlG98xVRuLgsORzTHOfygqgsMwHuJQAnkR+EZbHPHgGzqL/fMhZVlYrExk4kgMvkkj5siDQyXC5rGUID9fgMRxKfnTWIPmSBlmEW+DGj8LMn9TGpnGdXH6EEN/2jnsT/tnP88rL3bV/rhw8fZDb4vK6hGvYoTg8M9E8IdjsFNEaXQZ4xsLCbD57laWcm3lfEPL6j0mXRJQjheQDHJUCvGncVM8Jtb2DSVypUCM/KoeFGU37m8rVG4vLx1pX9JN78bLrYGePTop1YQl4JudrJ9qShCZRrLVkZe6t1NcK32+qWEsOztUI9PW1nbiZbnB5lJJ5JsMN3VxaC4YyPIJSzRSG9piZaTerVjYN9rDhy6XCu1U6k/jgtxk40sSn0alJps4iqXJY0Xj0+6vfUkNLn1xKMaGxJFvHhwqoYtRyxuwU0vEH4zFStdg6uvka1btbhxOphUvcAbHC/xwM49f8FSJF7AybLQbXyUe+qjtm65/9tOVobQWEubAryqxZFPfQEMnROWq9QbJ92/eLNfdf5NWWk+8K8Md7MqnvCepqTBZN5XZNxbrZ5vRsWMLhWVyYXHefNlqvyQqlLRLNoAxJmQVXZaDLF5gvLuWaK6Md0gArnQHflUPWu9V2qIoBuSpfnxkg9KQy28bpEGlwhUp8esSGUn+1RBHWi2OF5jurePm+4rxAnSJRYGwqT1K6saGNt3wVwmjeHXkxbzcgndBjfXwMet2hXgBVzfapzlyrlTWb0V9iY0tFNMeSza9nxo4sk9DHGTFC0lEsMQoAVz7X3Vx5DVhf6BuvMBwB9m0z2xoxDalrINtI6Trr1L222sOH9rfdOMFuGvUHSXnsPikgJCBrN9prR9rh5sylkjFEUe+wV6sodnaITzlv73gbZCekOggMWZsQHN9M7/4zzLEQtsQF1H90HNMkAMbdUZikWuHHqB46J9ubaXyFtg3qC86nyeWx0+zO1+kisNRc7O2D5+sw54CQP59b49RzULOs0EHwf14v75v9tRN1GRBTDaNsrv4w11aECmu7+a2jUaLwOOcnoTxrkcYDi7O4R0czYW1pDw0SxIPPUJjhbmQTSN8wzxGXGr/GH1cYWxT7YN009VhGhs6NTPSVcHNavPcF3CMpt9H9p1MjJF/69+hDWF1ljAeWuwp2tePg6Snhwb8vivB4BQOv5ad+MKw6mnoit/XMzwUCirEyFmdT7aS8wW6ZJqUsVBKkO2iUGi4WApcAk1xcC1FWPUMkwDuwWY2IIrNhIaQsfHKvU3c2r5ErdAV++AoF2SFaqUpL8bCBpUFQziE90oQxUPfEMQB42qwYGLMB8aGuqpZuER8Y7HKaa+sFZ+FExwbpnLXCtLVFEcBUeW4eiw4bDVU8Jck0xAHhwM5B4HEQwuRZCcfI36/bwBt0xm/gTn47G5xHbbVX8XbX0g+V0PjfR7h9hRNcbDohUKDqG+THWwi8nb58AENON66d3QmeGMajwUJAdvJ/ICTaXD0goKBntqiOXdE2lJrdGiKI35888PEtrrZtp+xCv7pQa18tybqEyVb/36f7JS8+PPDU39v/wPfUZz2gxP1P5AzYBa6frx7iN/LyXaytPLN5+ghbOR0Mo39nhaWn7r+2U92nvJswR1pgx+Mn+dGcvA0tR8aovXsGJqgsdGoITSogTuZlH24K44LZ5vDt132zTa9IybVZ3AWdimFjZrnNoVxndUQ31isdesHkImjfn6a//gHF3qJlgmFes/S2GgyLKmTmtoNXB2E1ok9b9+F3jFy8MlMcGK4Vbr9MH/P2WGyN4j8WnIOjUwZv9q3HPOTw8fo1rl9nKZmgd0+4UIm4901Kgfl0s3w7KxWrFnYTDTkpSkOi5XJ2N7oG2VbekNxvydjseYf+FKwD/HL6idpiRK+YSzs9peRL2lEO66whrxwE9IKXGeHR3BwNgcUNz9gm2wvqh8ewvuxgqHpkStfsLtnJHzDE9j4QGMemvORSvKCZrvf8BG5BaAjDhpFxpm2bN0MCIIgpi0O++4jPZhup2aCoWm6K5kXLu5OBIEbQV/dbgfeSKRgQK/lNzsHiUz/KKyhtjgchXX+oQCFS+GsOUHmI1cuuDaU4ehNbgizBaXtErVloMO1gf2JtsiZ3vwAnZ/2Vb/a+WkWY+JQDG2PC99IWgj/xgCBhDjTkDvgtlJgaPIjMwbNDFuVRFB6Xn8RPj+qSLUVxK0/7avRjKeKoGiTX0kKeemLgwRr6buJzOg80Ugw/uJwPv4hPgXxu1nVk2qNiiPoLVAY78A3CqAker9U7tPOdM/9w9cW3AOR3n+jnG2Y+GwffRsp6wfrbjMOmgAAIABJREFUk/X+m67Cf6HDCtXJhp2bT/SUxASx+GaS4PLKNiAOsjRypVHonkrOIcxY4ioO6/v4/hsNsolaHMA3YerT+GoHndKdj384sXa74oq9ic3M61/vUd8mptMEE+upUhPrm6PrVS0bXD0cLMfvMFfJJ2lUXmLLS1ccOHyLWyqPf/+JVu7xFMfGJ05OqFo2uJ9HKQ7gm+TvoMmu76D+gAAg8GggAHwDfAMIAAKAACBgBgLAN2agHK2J/WjMfQAlQAAQWNoIAN8A3wACgAAgAAiYgYCIb5Y2tULrAAFAABAABOKIAPCNGaweRwFD0YAAIAAIJAgCwDfm882LRX/9/P1Cp2yrNmOxPrGxovXgO3+yLTO/VlAiIAAIAAKLi4ApfLNuxb0T2XN704sXb9175fLJE9lzH9ncxoo4sz93vpn/zO1KMY3/f19Q13S6q77sTwol5riOnu5q8rjsxlqhkAO8CAgAAoBAoiJgCt9syETK/RNbxeKh4LDNIf7IPGOsCHdhZsCFPnc8iHVM5Js1RZ6uptOfF+UozCOeL+toOt1Rlv9E2ETC2O3/s/X53PBfNAZX2PWBbAEBQAAQkCHwiPINp0CJoWMa3/w+v7b+dFd9xdbfyyRhefIv1ae7mhr25cp/0vvGXvJ50+muoyVruHbBAyAACAACiYYA8I2Z9k3ua8e7mk63vrVGzbjpOlgQiY0CfJNo4wrqAwgAAnIElPmm4c+Zcw05yAnmdczttzWkCvQjdo7N7Uotft426SFpsiZfT80WzsGXpTS/bb/nxQskNSvO7xD601Iuf5I7fyDj+J9xgib75WdSL1VkobI8K84ICip/ZcUdkn9zzr2jmZdkJ8O7X82ca8JFeOyXX10h9qfhUppXXXawNVdxuGnbN9kr069/lDVPGuKxX38lRdRMYZONPL9UVX+6q+nDImXj5hQ2bsKMFMir6Go6LfvU/iVNWJ9luRv2njz2BU52qqO64i/PiI5831qGF42yVm17/68dKLdTHdV7/5QWZk3kfQu+AQQAAUBAiIAC35zZ70Dav2nVpCsz8HE2ej6ZeYZhFTfmm3s1q+55c+YqMwOVmCqas759hk1gZc64cA7erDv72Rz49RvCBLnzJ+yB/SvvIUrLnf/EHjiKXuH8WhW7VmG2wzmQIrzZ11/gi6jYQRII6yBcv4kB32Tn2OYQ0+Tc+ygz4LLj59y5HRFHFrDGzX/zreAk8T8fnG063XVwq+xyZSFtKD3nvuF+f5+7DPNE/V9r39+H/n3/jRe5nC3LnEV/xUzTcLJsn/sgWj3qavrs0P/wdIL5pvms51SXp7b2/YomzymU5tgeQSZKRfNFwK+AACAACBhAQMo32S+sQBzwia2C1UcVxUizc0xgIYv/3lWXWYLxVWKXFKeIiSXhXXWZXRInObDxAoQJ7D5kyqQHmnPnj9pKrYwlBy/4709HWoxJn0SKns9h6xY7oh+S0spYlqUHUAJHgL0saOsr2ITi4wWi55uUSx+jIiZfYekhNX2yIXfem3mGRSY8hftiled0V1N1kUIYdFrRwVNdTd4qAQewhRoQocXKaPjTSDhck8eVRatt31iN6KS6KJetP+YbtPxDD5ZmNqFFpqbmqv8xVjqbT3h1hrcAAUDgUUNAyjcN7yE7Y3KLQHcQJvh4OY1mJnxDiAHrI4lLqpxYHpUZmzhtRV6h8WmECUggGeYbkhVhKfycTciDKxETzCQKP1t1eSWu2EuYXU7YjnNFSN1lUfONbfmd5tx5YRFW5vwBxEBCM8twdyFa/uwe9rJq4Yu5e1rFBCAAn2ug5oMG32w4jNnlz9l8iZtqkYnz1/+10TwJ39TmcUUs24Y8bCpBdHw+XHp4AAQAAUDAAAISviGTerwoItiegmwLLppZj28IY80LCImaRIb5hjrThDlYU789wev64texucNVycpYYs43L6xArVb6cEZVGJr3v/cdO93VVPsXVsULGIXBxk1z1fORmU1Yxup8Q8Kvu8ryBSX+9z5kafHmi4xvrC++9RliqffXC94y0JnCAARyAwQAgUcPASnfXK5BShavWNAdKmSfSuBtdrfmI8I3xIRqwItYeKcOxcGV6WMdiYbV6xMbP+xqOt2x5yUF9Z37TrTGjaY/LRq+6VC0xgy3WqGx8C4gAAg8yghI+IYh1gm/WiNnYD2+of60A+l8KFeY/rRNZLVGwZ9mv2TDWoyQwXHBBtKY2zfEnxbxao0QtzXYuDmuaNxsLWvuamquzePCMYQvGn5Wt2+eoKs1cn8aH8Mms29Yf9obq4AzAAFAABCIGQJSvsleh/1IJzNFock5gjhgPb6xrLbhqDMSEYAqSgPeDPvTLLbld7TjBZgMvJyT9e1qCgR1wUnjBRzX19EEbhz1ID+AgPJrcaps0pFy6SiOg9jFh3pn21LLBRHbslcUpUKNG8VTA9R5QjEr1S9tu9B+z6aKrfIqpRWeRD/pxwt8XpRL82e2ohN3Itt5Kq8AfAMIAAKAAEFAyjc8PZBoZpcd73FxBFjFTRdjBIsrkngBi5VdBPJmTboyJz/JmT+Jw6ON842VUYqH5sPVLFZqh817s2nI9UkHIjmeb5iGPbjQkysDrszJGlQHSQLSfhqPR/LZb597J43rGWw8dO58jR050z7Ckd9HbeWGzQ6UlcaRaMv+tKe5q+lU3cbojBtUypN/qSZBzEdr399Xe7jhLE9vivHQf+XC1RiLlcanNZ3qOFrtfr8aU9fps2X5YQdnc9DBAyAACAACcgQU+MZiZdyvrpg7ifdyNufcO26/vinlOU7J6to3VsaSmnq5Am+T9ObMVdgaVuNY53D4xmJlyjcJ6nB0xfks8ex+Wcp510q8pTTn3tEV51eSCGnB+WmkDmh/D66DLfXycREhcVhUbGH3jXodcxUZQjrJXpn+bUUW3bjalI22vhKHHoeGzsMTeRVoB6XiqQG2oia0zeWd2GxzYZ53HWzAuzVPd9WfPPmXgjVWrm6Pr9mwr8nD7ffct83+uBBM6k97Y5O7uhmFCTR98fn7m7hoaWFKeAYEAAFAIHIElPmG08XwEBUCGkeiccaNaKt/5IKMop6y9RuOqOABEAAEAIHYIQB8s5gqftWf3vqwtUzxSLQ055Z9nx+NkXETBdlw/jTB/pvYda/oKraYooE2AgKAgOkIAN+AUgP7BvoAIAAImIEA8I0ZKCf2NP9PRdXu9/e9FcE9CIndLpAsIAAIJBYCwDeJJQ/Q4IAAIAAILFUEgG+AbwABQAAQAATMQAD4xgyUl+psBdoFCAACgIBxBIBvgG8AAUAAEAAEzEAA+MYMlI3zP6QEBAABQGCpIgB8A3wDCAACgAAgYAYCwDdmoLxUZyvQLkAAEAAEjCMAfAN8AwgAAoAAIGAGAsA3ZqBsnP8hJSAACAACSxUB4BvgG0AAEAAEAAEzEAC+MQPlpTpbgXYBAoAAIGAcAeAb4BtAABAABAABMxAAvjEDZeP8DykBAUAAEFiqCADfAN8AAoAAIAAImIEA8I0ZKC/V2Qq0CxAABAAB4wgA3wDfAAKAACAACJiBAPCNGSgb539ICQgAAoDAUkUA+Ab4BhAABAABQMAMBIBvzEB5qc5WoF2AACAACBhHAPgG+AYQAAQAAUDADASAb8xA2Tj/Q0pAABAABJYqAsA3wDeAACAACAACZiAAfGMGykt1tgLtAgQAAUDAOALAN8A3gAAgAAgAAmYgAHxjBsrG+R9SAgKAACCwVBEAvgG+AQQAAUAAEDADAeAbM1BeqrMVaBcgAAgAAsYRAL4BvgEEAAFAABAwAwHgGzNQNs7/i53ysbL+nDznYpcC+UeLgLNrzf7yaDOxPlp9G+BKfASAb+I/Jl9MMakOj1XOHr624L48ka6oidIKSuq+OL5vF6P4a5J8mWF3JP6o06th5dp/LLivPXzbU6eX0qSeA9UABGKCgCl8s27FvRPZc3vTiw3prJTLn+TON/OfwIbFGFRpPQ1bfv1qw7+eV868q7Hot0v855dKW0zglmTirtyMSmnMkny/GP9Ssvludo2KfZPXPBacmglOBb3blDFZjFoZzLOqbwbXjf4dObtb/mLh2RBK0+eR/5R83zi7i75DlFNUWZJ8lTc0zBOujwHOJiBgCt9syET88YmtwlBHTDnzdmbAlRlw2ecaEOssDt/YRs8X/XZp8+ha5X7/1w/W3T6BPv/pQqwTd745/M4Lv/RoVVinrzi/eevagvvag/XbVZ1pjrphrNPH6vOVMdEpwpBwI8y5pMnv60GfwQlEOcnON8xT+Vv2eg4UP6cF6faJUj2Rab2+mOKAcgGByBBIQL7hVBI1dOLCNxyaxNCJI9/k5GSFzm9njS1VguQqrPSw4+nOBfe1BVeztn/Gnve/1Xs2J7Q/ihg6yc43xBRTbIVQfI977ruvLbj/Mfo4kAcgsCQQAL7h6E35Ib588/KOF35Fbr3tv7asm/sqUvtm4yiaKX93KydVuY1CHZfgz48U31hS2wv+hbxqm99MesEleL+C6pmDgJhvHLa55tzJzamXqrKRB+xjm/uZ5ZOenPnmnHuu9K0cwS5LOb/HPteEl1i8jrn9tgaJIluW0vy2/Z4XJ6hZcX6HxJ+WHkDLM5lnuAyVHW469k32yvTrH2XNk1I89uuvpGRzGeo/sP60V58c/fxVbD288cvnz/xVtnSvwzcrn/xX48Zfkaer6LevX/3P8ezDv5eqhndfe+Z2++vUQLm48fbBJ99l00jXb35vG/0bMmV+bcx6gzTh9ytDf9sw+lpajpWtsIoDUKO7pDc9QNPkzm61NJLVEV+NpAke39RMcOxC0Ybq1it4jWRqZuRKW1GaJFnU/6YVuFqGh27QRZrx0WHvvgJJ8EIYfJNW2jqKshrv8zj1+4Phyq+t8A4Ex0O4kqHQoK9xixCHGr9kDUlSYQnUdFHqalueSg2fbH3ovrZwsLVFLjtnjX98aiYYGKvfabjyKqXIM4dvAIHFQECBb+abc+99nBk46kCU482Zq8y8czJ3vnnVZQfu1stSL9dgIvHYA67MyU9yULITKxqW8Z3+jIu8m3Vnf2bgY0xdovWbGPBNdo5tDjFNzr2P8EoPZp25HSmGMSLq+41fL27/7W/rb59Yj1dHin5re6pMPCa1+GZl1u2LyPjAOeT95yvs9TotysHt2kAMlF8+X4dKubj9t0uv/nsTxUrMN2ldjZiW2le7WUISNCdivnGu+Qo50971qMbXsqsjVNcr800giJhgdNjXMzyCte3Il2WC6vHSj/TL3fVXp5H+DYV6e/y+K1inT/TsEWpzKyNR38KyxPEC+VV9OLfhjljy4lqPj9AhxmEogFnnatvLXJ/R4xsCde8oqts4ygSvSzWpI1k5q+JS2+YdpsSs65cTogTPgEAcEVDim6oMZMpgm+POn5EGryjO4tbtN22208V/lmB8lYh+SErUEmwkzXtXXc6hOqiieBV9hQ7L6Pkm5dLHufPNjslXWDWXmj7ZkDvvzTzD1koPU6K+i36pfZJYEjkvPfsL8lxJF0g0+OavbmwYebNZW2TFv1FwwRuh7WytnnnqPyjPV0Ovst9YmcPrMnJY9STkG/r8N0WyYSyR2zd16y8jvimq5OugAs7u1jGkwpT5Zmpm6FxZBq6541McyTbasYVtiEqGuiXyCV4m0XETPXvs7Jf23UWv2SU5G+Mbe9HZIKKu0QuxJBsrU/IlMu/GBxqpwZRW0Y7iF6Y7K9l66vENaY7B9RuUePtEuUoIu7PGj4gf7JvYdUJJZ4N/Y46AEt/sT0fFYL4ha/UVuxBhkOfzBzC7vM5bEtmvYHdZja0cC758B2aXyoxNXD+Qusui5hvb8jvIqLId54qwMrhijusvsNpK8JMSanJzIWP0b8gtNvce3zSLlVHnG2ohhQTRw+6PtiC/WQONb373g3z0b9tT76pUhuObN4rXITPo4rqulWr1l1dYLaXk+1jxjb+KawXRqmMXCrlvon0oqL+KqG6wuUBJWHyLjPANdTTd8FeF73vULL0U8/F050G+PkXnsIOxhw3CjjnfbJtwoSi12aejRZivs2YbIRkgsIgIhMs3Smsqq233mnPnG1Y04CHR8B52phHSIoMk5nzzwgpkMCl9DAezKahvRWpR/BKP2KzbMnuo4L31QoLpasAetrqVaiOc8s3pDXMoq9dDr2lIWqHCatmKv08KvsFLRFMiVS5uBUVGn2+ujg2iXUTTnftYmyNmmppUMtQqWC+hph63ABNzviH2zb9uPhmzVmj0MfgJEFhcBJKTb17CFlXDqkm0TUf08T1jEC8F9a1ILYpfYlVogG/wptFfj6xQVJ0WK8PaN9n0QdWZFo0/bYezG/nT3jq6Q60a7Pfa/rRFtW8o37Tv1RGfPt/0NS6SM81ijQffkPWbgYkU4BtAIPkRCJdvGLpaI/enfbycHB9A/WkH0vlosZjbN8SfFsZqjVyLyfmGfFM097YosTrfrPg3ClB+Q8Gfxho0hyvw8QEtfyxQ6Sgs32Sh5RlJZJr0FXmFRfVkOUPhSxKfdvhcu0Ya/FO0fBPFisIuL44lG/xUcwuk0XiB3SQ35ci0tFKy0j7SVe2QgqyAngC0inYUICAywog/bby7miaLtX1D4tMUZceiHXO3oTYI8CsgEDkCYfNN8at68QLEvea1+9gg6TP7sYeNP1+ArN+svJSJ670s5bw0AWkPCQrI5YMCeO2Qcuko8qfN7UrlWC3bllrOlijQEWrQEPX9xtzbaSRxziYnDiTL/1eu6JWWujfQ+QIfKZxn03Ich5NpxQs8g+MFNv/7ZT5PtXgBCxvt9kuljQsoEDQkcr6xvHkTrTnr77+Jkm/oGoza/n9BW3g0uC9fbsEr/GM9JZrxAq5uFNk1cq6Ue5F7EMWnsYFkQ2dLJRHVloP9KIwYfQQWG9+1FOrGFeHy4biyAb14geEOErHGbGgk8WySELItp3Fj+zzSukmr8dlmP7JNC9+X1yoqtLkWwQMgYCYCYfONRTEeusZWwQeGUZ6Y92ZNkoDpkxK+SfFV4dWX4yii+o4nZ16agI6u0tcxt+F8ApWrJl/lV/LZeOjc+RqUSeAjFEE3f5TGLBhAkKjv7Wgr5em82958TDZFvx5ZIdH1OdvIjsvX/uNdd9ub/0utYDGGZQhhPDS/dQbrDmrBXHpDEA/9OmcSCewb1OScl1bjGLnXbxdTFrRYVwzgY3Vun8j75WtkTv3ixQftuLPUYhCU2l5CXGrveiqVfmUk8dAjV8nhMW0lVP0RP5JAOyvHC9gPYDIwsuyvUA12u0wwFOTjoW/0u8Tx0Axli+mhAb9vYGyoizUsrIyIb6wMU3xhCC/k+GryRcUVdODvZ4I3+l1S/S5X6+JvWBojceEkHlpkReW34dWjmRE/qt5IaGb8BiZIyYFvBWyyqyi+fHBi2lejYNg9dvQuCobuUzxfIDq0w204pAcEYoFA+HxjZSyPp5x3rbzH7fd0pZc/Lh6WqamXK/BOTG/OXIWtYTXaRio8Py17ZXqgBm/c8TrmXOnlTPqkOAGnIPh9o03Zc7vTXhK0OXtl+rcVWXRXaVM22nZqE1dDkJjLkH0gfLNu4NXVc2TfzNevzlXS2Gg2Dc3N/V7eL1/jlf+e13/xPnVYkG1OzpOjn2/h9nvOVfJ7OblM3n1t9dx5st9z+2/a+z25FZ2v83poNDlZJeJPDqX7Rs+vdguqwZWl+rBN6zAusihC9x7Sub9w+m+QbxhL8YUR9HrQW2BcEIKUaQWus8Mjmvs9LVZ7Uf3wEN1uOT1y5QsuJlvCNygliYq+MXxkgzB2wH5kANk34921euaFoG4s2gze9Mrt9+w9W50nYkT7lmN+Wr0bQV/dbscxdCqdxL6xWBnnBxd68VlwqCZjY511u6URAc5+fGTng3y1I+8o2sNHVivUU7UnsA2BBICA+QiI+Qb64tJFgDsf+mnnYqknEqw13ucJc11kseqjMpzIMowozEwlpckVExSX+Vn+APKklTapHnlH0Y6INROuvUt33AHUQgSAbwSDfIl3eme65z66/2ZA5f6bqJtf1TMTnAq1v5PYkG7D/rQrjQlMipV5fTpkY7EyyYF21J1KqK3gOdkRAL5JbOUY4+HqfPzDibVq/ploy8J2A7tUnrADA5sFghMBom314vSfvP71OpetJQfaCdsNoGJxQQD4ZnH0RWJqMagVIAAIAALxQwD4BvgGEAAEAAFAwAwEgG/MQDkupisUCggAAoBAQiEAfAN8AwgAAoAAIGAGAiK+WbHq6YQiQ6gMIAAIAAKAwJJBAPjGDFZfMt0FGgIIAAKAQMQIxJVvlqUc35Thez6se6ATkR4ytlcfr28sifFtK+a2NM2RIdonb27p8QuYiXjkwIuAACAQLgLx5Jticjxa86rLqpeMJYXWq+4kR7Bwl24ljvbcSQ6YIcdTCo+oEQKrcMx+uN0I0gMCgAAgoItAPPmGXk3ttfvCOPdMqChj8LzVltq8KbU0KoYow5cKz4z7+LMjdXE3KUG+p7UHH745EMSHIgvO3OSbDHwTg45kkkB5qUGdAYHkQyCefGOxMsXPpB1fEUfUZDdbRzae7btdB0sdieyPooYO8E0cOxsUDQg86gjEmW/iPSuMEd9ExlJmvgV8YybaUBYgAAgoIRAfvjmzH99/00z/BjZIaB/TwCe2ClsavdegOedexXLhFTuXP8mdb848Qy4+aM6dxxcfuPlrEVJwglWXHWzODnwnQnPmGYIC/VdUjflmx/UX2PRKYEnZUbI6MnahUPwWOSHfV+MorPMPkTWeULCzUnwdi/gVaRHGfs3Y3th5NUQvFAiFBn2NhdytZSSHcPjGWePHzrdga7HwGH+Gfh8Yq98ZDkrGmhBZw+EtQAAQSCIE4sM37sJMdEmayz7XgDS+Mt+cWDV3klynZp/zomT33k5lkSV04rh3Mnf+EzvKByeYr8zYSrWbHt/Y0r/FFbiHOC/rDnrODLhsZ8JaSeJWR4iuV+GbkdFgMBQaHPD3DqOrt4JTMb6wxHGwH986MzM+TC7vQtEBg5+KWc0w36heU2bdRq5hVrzNhZUL8BAgAAgAAqoIxIdvWPVEWEGFb5pz54pTn8P8sWkLvuizhru+k754b386IRh03SdiDvslShh6fENpKUb+NOX7LtkbJ2/42fu+yM0rMz63qjxYZAwnSKPRcYP1BeztYfa84t1OiVVhkG/o/ZXT0jsxcW7OGv9IaCYI9o0EW/gXEAAEjCGQyHzD+r6sjGVDJrou+hNbBW2VjE6sqZePC00lWQKJP43mYwbfCO523N06howPX41hOtGVIrlfWfdqZCN8U1zaOoqqN3S2lKWu2NVTtyGQABAABJY6AkuGbxhfJeKbuR0p2ER4VPhmy+kg8tFdbcvT7qkG+GbQj919ullpFwS/AgKAACCggsBS45s7rz9afENCEoL+L3RuqzTAN60feHwoqEHZmRa2o0+lw0E+gAAg8MgisGT4hvWnvURcQEll36SVkqX4ka5qHdqQK3G3H9k3gZ498p+E3xjhm52Mw60cmUaGB7t+469K6pN7hLDAMyAACJiIQFLzjWPyFbrAkL3ahiLNvPbzjJBvHNfX0QTu4lVoBYiLh6YQpwdQYJsgbDoy6DXjBfTXb8gaDApdU9yPSZugPCdKq8Wn6Uz31mnGC+S3DZLQOIVNqcLzBexFZ7GD7oacVArqr9JzcQQt0qxbZGDCW4AAILBEEYgP30jioe99RMKRl7spyrJlfOV4gdz55hz07n77PRwPPbcrNZuVU8MeByKYkysDrszJmpz5kw4c+iyIQcApG97DyZpWTboyA5Wr5mu4kAQDmlQSD30j2IsPj2l1FxBuIM4ugXZWiRco6BhCZDAT1F32Z1sn5B52u8zMyFVBPHTzNmEai3UbZYuxYV+Pv3d0uD6fa6CQbxiLNb+qDy/kjF4oEpGT/UA3ieeeGWymDRQXwWUID4AAIAAIKCAQH76R7PfElofQ+DDIN6uuv2qb9OSg171Zk7tS2c03uJ3iraANNuJwk/KNZVnKeddKQlfzTdlz+20NxrfgUCcVnfXjvTXomSMYo3xjtR8ZQC+Od9dGFhiWsb3RN0rJIHhDab+nlbGsrW3n9oQGgu37VrNsIeEbxkKjomdGvizLEDJcMTn9M8b7h9hqKPRO+AkQAASWEgLx4ZuoEZQtzwjVYvI9k305odbE3rfv+HQsGlKMWuhASIAAIJDcCADfJID8tmF/2pXGsIMFzGXWqp6Z4FSo/Z0EQMzchgNTAgKAQEwQAL6Jv/bEdsN0Z6XosLKYSDemmWAjbLjjZdD1gAAgAAhEhECy8o1vb/jHnUUEUExVdvy5DZoDCAACgEC8EEhSvgHFDQgAAoAAIJBkCADfJJnA4jUxgXIBAUAAEIgSAeAb4BtAABAABAABMxAAvjED5SgnBfA6IAAIAAJLAAHgG+AbQAAQAAQAATMQAL4xA+UlMDGBJgACgAAgECUCwDfAN4AAIAAIAAJmIJDcfLPVltq8KbV0MTfWmFCE7pSBeSp/y17PgeLndFNCAkAAEAAEEhaBpOYb2bGesSceE4rQn1bIzv3UfyVhOxxUDBAABB5ZBIBvtHU38I02PvArIAAIAAJGEYgb35S/suIOuUqgOefe0cxLTmGNZVpecv+NwzaHLk+TfBzXX+AyIQdIZ54R30rgflySQHDTGs2TvbBAvwguK82HtRXegeB4CN9ZEEI3BWwRXCojM1ykF+RU9UkvO0C3Hlxty5NacvlVPeg+gnF/W6H0J83qQWJAABAABMxCID58U7EL37bpzbqzPzNQmYUvsMkWsIUe39jSv3VlBlx2fIVa1h30LDlOjfCN497J3PlP7AGXfQ5fyDZfmcHekSO70UDCN/pFGNDj7EUywVF0E9pQAJPH1TbuyEtdvilp8uPr0TCXoEzQv76mMqk9zt3YNpU5RU2IAAAgAElEQVTolxpIa25WR4dyAQFAIO4IxINvmPRJcotzDlXZW7fYEeUctbEr/3p8Q5WULBmvvAid5N7bn04IJjuHmET2S/Q6NT2+0S9Cn29Kvgwhm2Og0UlyS6ton5gJTvFHQevyDekfsmTyovOrenBZYN/wfUCOEnwDCAAC8UQgDnyT/UomYpePlxdzqmFZ+iRyjq26vJJgISMSiT9NnwxkdGIl93vmBjaQImQJJPaNfhG6YittHcPscpBPWXQOsUKwx6NCJFJ/mkoyPsO4T1igAoAAIAAIGEQgDnxDnWn70wVVTP32RO58M7cAsxh8w/gq0XrP3I4UXK4JfCO7p9nKkCsyuQUYmeECfANUCggAAksWgUeOb+68DnyzZHuzYAYDbQQEAIGEQyAOfLOJrNYo+NO4xZXFsG9Yf9pLRAYm2Df4Qsyp6U6ZP228u5poxtjZN+z6TY+HrhVxvkp4AAQAAUAgMRCIA99YbMvvGIoXWHkpE3PDspTz+x1oyecTW4UItfQAycchp3FCJ47JV+hP2attKJjNaz/PCPnGcX0dTeAuxiFzzWw8NC1Iowh5odJvXD4cV6YXLzDeXcvg4jLeuTA0hWLYfDWirLacDqJVnz4PSaYwi89vG8QvBiE+TdRDRDAq4AaJAQFAwEQE4sE3VkYpHnrVZTZczWJN8VXhvTXH7QFXJtqmc1KRb5iG9/D3TasmXZmBylXzNRwhEb7JnW/OufdRZmC//R6Oh57blZrNgtuwB797cmXAlTlZg4rA0dUSvtEowoAuU4qHHu8TmCD7+scRT0wPDfh9V4LBqenxGwp8YymgdDJyFcVVD05M+2rEZ9uk1XbiF4NTY/X5BirGggAqGBAABAAB0xCID99YrEz5phVzJ3OQ1YL2e644nyXSktkr0wM1+FevY86VXs7gADapfcNYlqWcd60kXDLflD2339YgDne+/qptkuwq9WZN7kplN9/gssRbQRtsxOEm5Rv1IkQVVhMYs6G69UqI2+/Ze7Y6T7Df02LN33N2eITsBp0Ybt1XUIID2CT2jcXKOD+40ItiqdFnfGyss273k2LOoJFvVxod4u/VKgbfAwKAACBgMgJx45tFbqdseWaJa+HnjvtFO3sWGV5DXAt1AAQAAUBAiADwzdJQnTj2eqKnZInT6tIQFrQCEHhEEQC+WRKC39szPjUz1LJNOJWAZ0AAEAAEEgqBJcs3vr2SE9WWBK+A+QIIAAKAQNIisFT5BtgFEAAEAAFAILEQAL5JLHkklPELlQEEAAFAIIYIAN8A3wACgAAgAAiYgQDwjRkox3CCAFkBAoAAIJCkCADfAN8AAoAAIAAImIEA8I0ZKCfpZASqDQgAAoBADBEAvgG+AQQAAUAAEDADAeAbM1CO4QQBsgIEAAFAIEkRAL4BvgEEAAFAABAwAwHgGzNQTtLJCFQbEAAEAIEYIgB8A3wDCAACgAAgYAYCwDdmoBzDCQJkBQgAAoBAkiIAfAN8AwgAAoAAIGAGAsA3ZqCcpJMRqDYgAAgAAjFEAPgG+AYQAAQAAUDADASAb8xAOYYTBMgKEAAEAIEkRQD4BvgGEAAEAAFAwAwEgG/MQDlJJyNQbUAAEAAEYogA8A3wDSAACAACgIAZCADfmIFyDCcIkBUgAAgAAkmKAPAN8A0gAAgAAoCAGQgA35iBcpJORqDagAAgAAjEEAHgG+AbQAAQAAQAATMQAL4xA+UYThAgK0AAEAAEkhQB4BvgG0AAEAAEAAEzEAC+MQPlJJ2MQLUBAUAAEIghAsA3wDeAACAACAACZiAAfGMGyjGcIEBWgAAgAAgkKQLAN8A3YSLg7Fqzv3xxu3tq3ZqPP7Naw6yYwfTb+9e8uXFx62+wJgaSPVbWn5PnTJbayurpTP+w/4lMTTkmlThkDdRsmgH5PmoZAt9AjwkHAWd30XcL7msP8reH81ZYAy+1bv3AgvvaQlHlVqXR6Cg8+MXxujJnWHlyibPbC/yo/oVlJUqZL1qjuAqE8/BY5ezhawvuyxPp4byVOO2ylt46eG3B7b+V41QBNqnEkTjAJm9NkpJvdg4uXLzNf9rO1YUvgPLiwQcdN+++94bKSAhrhL/YXvbPB10/0yp1fT9bHJNsw6qDCYkp2Tws+nDR7BuWbEqbVeybg/3jUzPBqRmfO1LBbZ8ovYYoZ/32hLYbKNl8N7smqe2bpgfuawvugYn0VBV5JYk4wtcwKu01YZwmcBFJyTd5zbO1fejj/RGp+Ij4pu7QDwsXbz849Gb03aKu7HvMND/er++brR160PXjra1p4WSbVr753N0OxKCzOxerr2x89tPZNsSIETe5xNmNzI7SpgjYnaKR1zwWxGwx8mWZ0gB2Ptn60H1t4XBn92NqOLzTM4JymO7cFw7C4tw4Vf602rxbnF6pqpGWXjmL9K/CZ/ZpYaHOb96KmhQztjf6xhA3j5zdHcsm8PV0rM4vdR2reJn/Rg5LydOdOjKNpzi0ai5vC3wTLQJJyTfc4CGGTpz55vCtrtsLF3+8mRdR3/3DnlHvTc5WWxS++d0rXW5EruQTId9YOd+O2kRVv/kF9VeR+kOfsQuF8vTbJlzXFtzf3V2jSQMZ26tdxc8x8tfD+MaZdQ4rwXPtXF8y6eHNb/7cMSv8vHUZ0893t57k67/j6U70pas5UmpPKzjgC1GoF5FvPD4kTX8VX3MlfZTaXoh8sA8L31czKOMnDu2aw6+xRgD4RmmEhIXysVmkyge7I1BYz7bcJzTQ1jd7anHsmz98fAtbTgsd385iYouMbyrz+pAGLCxTUxkGYFz9xeDUTPBqTztinVDrTskrzpxzqIjSk5URIBn2K85v3kYGxN01T0mqYe6/zn68Hvbwz4d28E3YOIo8ft/dyomM2v9Y2xnApB4Y8/mnF9O+McY3Vuax2vvIpLvYrxoDkiDiCGvgQ+LwEYgX35RsPjN7ip3Xd9184DnX/aydG+rdntsLF3+YeP6V9kNDD5D1cHuhY2j0eZmTKgb2TbmoiDy+DjKH25sTbYqUoMo3JTsHH168vdA12J1KBJPWUoUcgA89x9jF6q2j3u9ni4s2Wqy4yRH402SlSzFJa3d/f/fQwfLfWWUtMt5diOVxbfbpyDQgLsjxKXKmjZzdXXgWTb2HWrbxGtbKWFK7i4gHaRvXDUQP5C2NOTtJ4KtxFNb5h25ghRsKdlbmi0rhm7yDuAffOipQ9PyvoqJVcog+TcmarxDFSvyH6WTNo1NtBiPT8jV+sclod/mCg2er89IYgomSP82+5Vj/4AQ1N8dHh70fCIHa3YoccYI5wc4L2I3JmjL0X/o6K5TpzoMqmDxF3IN3narsri6OtFLvMCpopKvaYbaAVJoD1YgUgbjwjXNrL1LEF39+gBY82GWYUy3cxBYr35sP2n5a6Pr+bm3fXbzwsNDx988kI1+qW8NAgSjfhS5xERdHRtk+LdPOMr559twD1knFeasWLt68uYGrxovdnp8QwVS5kFngwNZM1z/7l3MJ+IdF4xu+CFmL+J/0xtWHd9H89B+jjxt/RZryuSNX0LpL+17GsrcHrflfbRN5ILdPlONJfZb0RVq3PPcFX4/f1+MnWlKuQ6luHQ0GQ6HBAX/vMJraB6eGj6xWbh1R64fNd6mxDWTXLST+w//f3tc+RXFl//8Fs1uNWd3+CiqGnURwMRvWnbi6RFeJK8uybJSYSLKRr0YWHxGMok50mSgqU0RQgaImOolYhDXUiAqsBsagpJxYoJZiXkj5+1ZRvsLdF7zkHb+6T923u+/t7nlgBvBWWVbTc/s+fO7t8+lz7rnnuBAJbfbwnDIs+UYdL4dvnIWNIQAOBKrlGrK8DV3Y7STvlxXfrPGcAXPRB0losAPOS0vbxYo1atOkKnSnaiU0G+Zv4xWQudPxKWRTO4Y7Aqy2aW6Lolj8EUgI35xEn/kVJcpScDm3niSCXiYf+xMN50/Ohmso+cQIkOx3+pdql1T0fNNwsQlJ/6QipL4o5iaDdDbwTcbhAeC20Au588dR5MLgPt9KDUReUDUC9LPeYEYW5J4HI++tUEZNX0xpvrH64qYHwrlOgVLyXqBEkh3o+mFfNS2e0Ea6Dd/finb4tWvYA0eyNXSv8+AqJDfLmqBZievJhkj060D83zrQ4pLWd8GuxkThPqLs4rWNRXNhOQdJKWq+efPUZSC+B89swgTjgqpnqMdHdv6t+AZ31dAT7etJAYtJtHAf3x7Lmw6h33BR5a2QqXs/IXyzfWsvUAj8vQMFRRuSGGgahC+yGv0Qc75R2EV2SAeRm5n3BDKwWPMNfp0MFi3qNZMdUtF718FgG+4AWvKe0AkXZWUYhsyARSlMXRha53OwYUQ2m5Dwt2cl18JD9YdTp4xsPu0euM//1tFOwBkdx95SsYoR31B6DxKaT1sOc7pnu0W1k5zRhV9gw2IfcFiobO0yeOJNOt/IR3qAckPrlymIgUJebMyMOd/I2APCxLkxkdPBWSExm25RP0YgIXwjJxVRTlmPxuuv9xeAPQxlVgzCNx58I2sltUE6G/Qb3GGDxKcGAke0osuLfMNudrEsaWjUhiGraCiwsC4MrWtHQT9iGJHNJmLAN85drcC6pRAMdozuPK3qgrbFjbl+EwbfoA/q1i7uJrZtfPQzbvngtsfgIOetERfDE2/S+QYrgu0eqttIF1Q2YGLON1i/MdstS+B0WM6XKBAjBBLDN3Ch52SUtG79aqQe7HBod9GNm+fTmW+wSQ2McayUe9xnSvONdAju30QumvdfABv4Q91XwAYM+If3DDorFB+QjwbAWfR/D1BuwTRZqtex4htsJPTxtuXVFim5HIub2D944oNDTGWXv3OO33mDFUvvL6B2krl/kwi+wST67h61bzpUEzYdMZKkuuGIP5kIJJBvlJWXs/Yi3AJR9+oNwjcefIM+/yeqq5CJ2aANRKbfrAhUP5i49GB4cx17C4rMimHINl+DuOg3Dnwy5jFvM5+MQplT7QUJCkAcmVS/ppbDZI8a+6eNLn9b+6wBhxjxDRbrjG35yd0wwGdNTJwvuDvnMeIb5CjIsqcpO2qx1m+wf5rJ5FpPR/fZLdEdurJYVxZr2LAORfkIEEgI37iWHaC9n+WMc/AYiuoOYBC+HL7Juwy3Rs5HcCxOYRf8jZlUMgDPqYxuzUHrEhdw4x3OnOzzyBvNcCTTIPGpacCbN3DbphztWjU0MntrGLLN9Y1av4Xd6pJWB6BHHDPmgoFBbTYBip1cC8KOmZ+/cRbW9gHHs8GQl2xEIyiK/cCYdttfRiEjl0AL2+1WNxEiG7Iu2Tp/Exu+WRKAB/hZElBlR+L+GwZQcPGkbKmGB19CPb5CRYFDlXw0ANzwbo0ux8uMJQTfh2W452+QfhPy5qK2cg+2Q0881hFapn7jWNMADkJZ+wsMXShHXwMZRc3Qn01/tBP1hHKb5gAlHbDyb5zU6eD0il6N4jo+CCSAb2bvJScQe4EzdDXy76JPpdi2pyWhs/1PxuuvD7uvjzZctH9cHNMJONnTC57FhyIv1in+C2u/gVrXAxClpvrOxKUH4/AkUBh8ozqnwRWvuMCpVrWc1groEe5uRx0Y96I/a/We39zVkIM3h3w34SgeAQ9vbYyfk1txEyMN6KfrMBqQ1o+OWz95V19BJjUzl+jSJnKeI2S2N0AkLBLryGMNtYJk8XePF7FO+ej8oW8He6BpTvXBNchWE38BEjin2c8YeK6vG4jjpyG6bwQHRnnjTzjoDqhE661wEIUirewcpUMMgOvmroVqPTh00GaPckKAgAbKkDAN/X0tbT3AO/zeEKB5im+KarDd8nIQMr0eK6Y/dEhxV3NIckkL5LB7octtnZeDpAk93zjRR0NoEBRruRYKBVlhI5LrrD5WJnk6VGBpGMV1AhBIAN84JJdzd9Ddiw9yAke1O8Ol4ECiMn7Dxz5Hv3FIrmU1KCzYxKVH4w3dXTqHab50QHwzvHl7fzUMwgYOAzVj32j81IqmPd2QcsBp0/61q0/CkGu2+QZZ0sjhG1gnOXjUG1yCPnuxjQ7tYFH/hxGtwLWkiiDwYMx97GByFTDcUTF+EJhU5ch5weDsx8cKzQsO28yPn8bRb7DwpbZq0ERjr2jlI1p2SNhrS3f+EXUM7zogJlD/Vz+uw+Cb9eaBc5wHrwCqoHQvZWXau+DqN3gbgxE/TecIXmAWVFT+y6mWIGTEwaHutlP5S6B3GcU3SAU0WC9VrBwSPBWLwhA8fHo72HlwfYZmASwvO4P32J72XrtYsqoUngA1KHwpGw+2hW4Pks5c8ZWs0kHkmlcLQnbu/Tpg8MQjJe1NByfmHqlElR7iztRFICF8M3Xh0LxyYgXrEFDiQ5czN7pjMa1KfGgTx1ldr8L9MxuHkCnkjgI5a9HSORZDC7Of5DTocAKCiobZVf5b45qzD6ZU+I4/CrvTQeyHMetbAuaUD9TL0pmZyTf4JCa2I0HzkXJt31QlVrYRgfXBD2H+m5WTl//G5c8He0Xj7+7ZEvv3M92f/29QOZ9sZEcBtKddO6X6ahtxiMcd1zzPKHCbvjJt899sg/lvTMhmOk3Hy0IJsX/pqJdlZvINO9IMsiOFYaoSK4yFQHZgpYfp8sAqTC21MNZx2snsGn5KgsjqJE9J7wdXcjUbMATovkVb+WI3LtIH21C45uzrXz618/SYjiVn4fF+c/1sWk1HAlfCDGl6ZvKN6TswQ2ZOjFEgIBAQCEwvBATfCPoRCAgEBAICgXggIPgmHihPr28Q0VuBgEBAIDAZCAi+EXwjEBAICAQEAvFAQPBNPFCejC8FUadAQCAgEJheCEwBvnH5s3byUksJMhAICARmNALrA1nv07HhZ/Rgw3ZQnGloJJpv8BHCsTWTd57jpZ9j9AWUtLpuU03X2r/yE14JoAQCcUYgvSkXnLUayy+dtBPEcR6RaM4UgYTyjXJefZ/Qb/gfMmpcahyZxkMnECsOen8Y933DigOmmXic486YI3V66eOit3FDQEmktLQRRqpVw+ny16pmydkrtt4sck/cBisaig8CCeQbHJSQH4/L3nqNYIlPr0cI3xRIrADPZtGpaQA3bOqGIdR6uybv2PzswoD7B9AKFb2N7kNcrlO2r20egdFXDZHumNHqHjzOs78eUravPTdMMjYZ4/7ZH2DO0mMo6h2dYRY9zox3p4Qtt9+E7MgL1j8a89TVJesHyGxi4pI2pB7mm8aDDrtrLJy+UV2aEZF7Ihx7fKT81GklYXwjlcPASlf757GCAU8dgBLfk5RA9RMkC6LhG9mRsj17b12Gc3JejJTtBd+gfA2J5JvZxVTe2CccvnkwVq0EN2ofdtuPk/1rfyUM7er/EYYMZ8Q1t4Vt0mp/JWRlmGaQxzckUjjualc2JaBtrsnsr0C0Wd9XxljjSshwEuoJjUVNQAUGsgwm4PAckSebbxwSzgm0t9l+fHdbUNsEShSLGwKJ4pvy7HbLfCqyIyP1WW3mi89Sy8J/2eKG4OQ3BL9GwbcnsomNbM6iXrZJ/va0Nbpf+90DUHkaGPHcBDIuIfrN0jqYRenJREP7cD2IXcThG+1XvK0BkuU3uzi4p0oJZO5y1pjn0KOmSanhAEnGcXPYC0Dj8Y2h86QGux1O8btB+onR0jxGN7SVuFAeqepjG+j7KCgU4BuY9cN3sY7+1fb1vLu1mS9q086Z99/V9SFMsJ21xLK3osA0RiBBfIPyRd4afsNCuYGLNUK+ca47Eujog2k8QC6TwY6W00WrSDZJCSdHwRlK6OjrjR+p71JKbkldTzfIhQwD1Ad7vDtySX6wuM065Bv47QlNHFpJhPkm4NytJFYYr66rMiR3gHzAlMJQECzYHvTcwckXQHqI7fT+rWJ+AcIx6a8BNykJhBF43JX3zZi3ucmZIiMhFS7f4IR72u9rJAR1n+dJRf31jyYuPRqr3KsRjqAbeUHvneFNhTkOY/4kJOyQPS0KvlEXRsQVpjRV3hnZA7JvsLRVUC1CWzvLqLlw/k8+BrmwO2AwphnWbV4Q0PODx3na1HBo28a9V3ZA3MKdU4LV3Kuf2eAbyTKLtqHb4aBBOiMqSTACCeKbfWb5/t75/YKrK5PfmSU7JMg3u+alS3K6nHxuY+q5VLt4/bG2D5LEUPcVkHsK5IwCGU32E7bIrWjubLkxGHr4tLf51JkgyEp5Gf55+YjKSdU3IF0NDqJ0UiDPR39bsfa1TPBSRnwDc8E1dA+7u5FRa7yiWAGKGE+uo4RDDEG24MgwTCU3AWrAqefGPYcVgQ5qABnnnkx4alpB/tAfR73gz7E9RUor+CIyvnHkQJH3hFbd6ipYn/957YQ4zeKuckQ25puBgr1BkObum/6Cog0UMevHYjWzWL/xX26KqBJzvhnZujWw55thd/vA5pLy2WHL1vLSWwAokp3WZGiuVTCbu47XrcZuUiH8KWP+1T8nb5kjOyTIN0ehiWLO3KN/Tm35DftZqyza7Kei7WfYwIpuRIVAYvgGra3KC63M5XK+LPNFbeYL76KfitN+qs18cSDt+08XgTu1mT/9dS7zEcPNNw9eAwTTcewt5af560sL39SCdbgTcNLg01DwYpFTdsA/lYSMmLH624qVPQ/nR4V/UdhIWxVr4ZZtfB11W/v/61czrJ9Vum1xgfjmyVgF1kg2bL4JBE1D40H9g3i33MA3KU3Q8DK2pwi7SuM8pFo9AIfcfjTh7wgQPcZoC4pQv3FgU+GEatIphum9tX1wSLKZfqNOgSnfoDDh5P/6RloXtDcvMCsrIuCG9gBOnae2bq8SC/2G0Crsp6+9dUFY9SP0fhyAuz4QDQOSeHlkwd3BJyObaCNtWG2xCld+CF9Y7+JnO1+9/3nmi8+d3+98/YUXvtdbU/QrE9WAvkG/DrB/ZbUiSk47BKYi35S9Pf9qsfPZicWUmF78/Kjz7sb5tYtsvswyznTb33n0k4L5vMWK+ObhYNMnkEU+Ddy+21ddgJrAWXs7anMjntRNK1PvlqQZ/oWhpVk3bdi/UdxY9c/y+Abl5L7ZRRle0Ke3xicK882Tkc0rAD5L60Z8AwzPrgj1G0lOPgHtPx2tSFdA9dSfYyZUtlwDHL7JqiqoCmw6jJwmcpbWjECtbnRzjmWF2gKY40GK8fr2rmwICEa7uMtNOyOQ662quqlUxdNvyldVBTZV+Ze94YKZcAcaAOWMV+5WHrS8wPsxGD2kO3L4Blky/Zf9Ealo3J5sWTrv2w/TfvLQr3Dmi+Ov3f8w9dxv5qYz38fyYZD2VJfnlFlS3Jy2CExFvlEE5fldGYhynm1MZq9RE9yXuy/04X2X0OBQ743A0f81bL0gvqES8SpNOyRPC9izGboQxnvOff2oamNdJmq+ySDb7NBdiv6s1qgvmG8IH/BGFDHfOLK6vGgXAcwp8oyws9fNxJPDN/rVgiT+RHVVRGdgneV5Fw0HUxQqIvoTQpVsdNG95fENXQbsjeEPiPO2cw7pVBZsRexnpFrHPgW09VXXerR/lm3CKv7znfMs/M6RftPaJemnKdo+8NaquB9/BBLDN9IhuH9juraQMer5J6k3wX5jxl19XnQ7q9CZsWn/0cbOjn5MPN2NW8j+DXwc8U27h4U75pumT+w0xC4zLfQbfJrvx1HDh/lAAfXhb5NIbBZjAY5PCIENavRJfisY6VEhm3wjc3VBuyIPbTKNV5SwFwBrmEpJm3yDTZSXzParlDrBBf6AGBj1IO0K7dtBL3CdmoV9CrRuGqZ91jRkWTJvVdpzYA9PvQo/HM2/GrGN3ce2sVu2JQpMCwQSwzcO5J/23eNFnBcbr9Tjr56YJacvhl7RXue3r4W33KkJcGZXQ/eBe4ESukUzvtnohS4G9A4QVaGtnsRv/4YSRlwZam5P49hblCHbJBKbxZRq6Qsk/nwX65BtLVJjmn0XLxxzIUL9BiwkrCFpIj7QC8zs2i7fID+9Btv6DZoCg7YKNFetmnWyAh4nsuFTYGu101PpkOBr68184XV+myY7kufdPwG+Gr//A68q7J+22SNCjfAgmgn3E8Q30sm1IG7SRH4p25SRnjrv+88W3X0bQ3z0o0XPd83fDtxd7P5z/cNTono/y3J54Dawj3VW0DWY8Y38x7oQ8CboawOuBOipMP0F7Pc28pJR29McxKjiOaL6QM8urNJtg9skEvNiC/Y9bgDezONuqi117MgQ9MNABQiFoNk9UspE4y+QVBSsbG5SNt5nF6OtEcNW+Qp8HtOwS1+09qvhPcVqcEni12eogV5j3GsO36zwV3zTpYCftDpQDY7RGE1ermV1MIzCo9FS4uihoKS54NjTkvY9BttX2KeArHBub8MvMCf524pFP23ADj5565wvDqWe4PmXLgl8AM7fjC4nr7xmCDHslagqoQgkim/kV5BJ7V/BObzxz5LVPRv6mleevp/b0E1OzLS0dbZcg8zx8CllT1P9oUP9faBMTal+iadsAX7SwIEtpPpD3wuUTEF/aDP9RucPTQ6u16rHzoncnPD1ggPnyPPK3+4nbriqP7T/zoi7fbjisP4jNLsWn1THz8Ji7naNRc4h5eGYOjhcglGEkaA7TyYucYw8Zv7Q0G0MWgVHYTwb3UjLt0IX4UsovkA38g6fMPqnzUYnV8AGjGYHa3ZxP9y6n0AgVJP4At5a2zsrYImS6WgfaQBEMtFwHUKHwxzk5V2Gp6AejXmvQ9/0R6CMgflAPUg7AXoMNfv6NSzh0zO6WDUOqXxrL6g5CiXSOH2MO+ngVAP+R18rN+GF61dnxitvTexttgwDqNamrUHcnx4IJIxvHFLVyitAxZmk+Gnz159quhYCJ2YQ8fT1Xaj6iHJUU897ogIh5i5OSm5JY09vgs97mq4ka/0GbWYA4aL5pxVSC4q73HfG0SmcSw/GvN8ElipaHT6BqD5uPPqHjHia+g3y2iHJFvqNJCeR/fb6Oj2lIWs0C/wAACAASURBVPlipt9gg6HaT9wfZaQo+hkKhfCEH/2Mq9/ISaubSttHfZADLpnUQCQsSyZypkO1Z+YsPfbY+wM5e/vjaOWxg4T46ZUQnX7z66qC5mHvneH3YuoGzRov3WfO9fr+klsTld+NZLk4BczwFI9MJwQSyDeyQ4kPXa5aciJcsmJFCgQEAtMRgexA4XcTlbfGC4UQmI7TF2afE8o3kuxYH/wQrLaxlSL/TZgzJ4hZIDDtEUj35/9bkM10UlCiXHKJ5htJdmQHVnrCsoC/RNMT5eyKxwUCUxwB6f3gSqHZvDTfmlOAb14arKf4my+6JxAQCAgEJhUBwTdCWxIICAQEAgKBeCAg+CYeKE/qJ4OoXCAgEBAITAsEBN8IvhEICAQEAgKBeCAg+CYeKE+LTw/RSYGAQEAgMKkICL4RfBMmAi5/1k72YcyYrdTkqqwDJ6dxnOA4QBRPL5vETsf6QNb7agyhmK2xSQIwkVPvmrcvsDDN5HW2LGDybGx+EnwTGxyn+msQq7cLH9EdWzN556WSceCJwvK86Ylq+fJ/gTMlH84ML/9Jno75zgyzWU5vygWBFsfyS6fDkfA4vB38F1na8nj3rYnKzseLOWEaLAuYTQS/3bCempZ8o4ueYgyvEhYEC7YHPXdw+JBLj8brOwK6TCGWBcJqbhoXVuJB7Js0/YZIty2101q/aZ0hZ+YjnY6KdpJ6CkaT6m38yLjs8xtBNnd2HClauq3v3wJCeY6tXM+O7WusOTF34vB20LAwrl04p8OV/nnJzM9oywLMp2J5c1ryjRId0gsDqkfFNyToFglVOe7T5Tq0LMCY+DBnKGX72mYY6/eJIdlz9JXjGnKWHhsGsZm1MSjDeTOLXK2Rxrt772IvlDs4VN3dwY42Hx29m3SDxG280PpKxAMHIe/6GLHAI67Q8OD8ZbmFu08VrzWd5YRLyZTckrqe7rtE7t8LXW705OOYePrggbfvhi7X7c/WB6KNfDqKajpBDNw2nHoqKr6R5FfKh/eCAGvDb3C+3Mn6MZ0RwzzafSpl48GWvl4UiXFwqLvtFIGRbi6Kt4N0bP76Uy0wRSQTLnu9LXrjAox8yn2DLAvQg4r99bTkGwV6bq4XMoVKSd4FSi7i+0oNlqwraVlAVz7cP2cXB70kguSlyeGbpNU4wD6MX6mJeWy/txJ656/yPp1Mlybmm8EOIIN6SPq7wQvlazQdwFmRIo/bOP9jX4ciYXW5J2wvCU2XWE+hj/eWw6ZDluQ5nlGQINkkAjqrcsvWbRVI2eLtQaHNBzuuAMy7objsbSn7FWgU8c1QN/gJRE/HYW2DFwtpyol6OhySjLBiClC7+g3osGtRMwog3WRr+DEEVgkS3993ua3zMgoYf7ez4k3N7Ef1dkiyIyV3VwvU9vjqoN2BJzflw3h0+ds46qBlgRiiZ6jqZecbxFjaPFSalWRZwO46MEDvkOSlJJdzQ/twPQioHHv9ZvaBxzA4/4Tv5jAktsj4pjy73SxfkQUImG+U5EPOwkaUIaLnoPreuhY3Q/3peLlFbSwkHZK8rhZnneht64TZKJTmNBMaWeX0Uzb5xpHclAuDg619P8YdoDvDun6rom0o9PDp7Wun1yn8kZJbUn2K0Anim8Ez75GOLfe0wCDo3XUFpMJopwPVEyO+kR2urg+BVW0kawnpM2cZkP7Hptgfa2Gexs7TRPlbU9EOsO39kk5fEt3b8Wv3BfSRdLevpRNWzjI/2h/XK274oXMpwPO4sSxgv61wSyaKb4rWnhuuJ9/1/oExT3OrPgD+D/3LVjftIXlKfN3BZcrLQ5Za9PqNJZ2YF5hd3OW5AwPgPxr3fuUvuAj2gQh7Fb3XAf70d7Qmow6n1MGcJeNqZrO8oPfO8KbCHAeO+R8+35AA/jDBiWtJ1XA9zKqiUldKU+WdkT27tyfhZJQR8Q361L01/AbbLmz1buv5RnZIpU0wybcq4JJbC5GZvoBZm0FEGuvMbegIdh5cn+GQUC5wFt8sL/NeIZ/zg4MdLadUiSzJ6Iub+hjHdieiyuA/sVWQWAhvt+7nvXUorcvuM3W8ApNy/+M2aL3sO7qciaSi31B8I8nFfiDp1N0Ui+mANSOTnWm2jjD4hmgSt9s9LvKCU/jgBKAfHNpA3eQNMFb3lQXgVBv9pA1Ya+lMwRZvB1qNT0MPAeDyX061BCHUD5+SdeUsaQl1NAJ7pmEFkoGk5O76ktj0gj1HdzR0gFSQF/MZQMmOJV0wed2Ii8fN/ALyJh9QhQcHm3a/pQ6Z2UpENxPCNy4lqVQ1TLGOtmHq65QPW5gjZGCs4QHKbTUCNx4mjFavKPgGZwLWpWzxXVREg2UB2ZEXhEqJppMU38iOFa0elJyxBOi2KLG8/3pASTFJzShKixI+3xR3uXHmruHNR4b9TyZ8vTCR1w/9y/QLgpNQUl+MLHH6/r6RqExDRm5QBNyVUzJqaH3/dmCj56UYt8E3aoc5fEO+4kPBHmBiQh+VNxr+SB40vO2KuEGYwBx9yp7EDbxFcaYyl5pHLXrlw1HhRjrGrZ9VANupOk9nsH6FVRnAJFwbUp6ymA5AWtU3oNwcHFSzEfa3FWs/Cm3zDdYbQj0+ooRpkZRktBm+tzmOJrU3TwOx/rCveg3dGbS6Bs9sIjct3o7SamCIA1i1VEM9sr+vA/xJ1UBmyrACURPOklYMdceVzss9mK64fCNVrbwKrRHbSA9J/WQhcQvsaiMbfsx8YPp6ePVz7yeEb1BqwvGKEqVbLufWk9TrgXNSNZw/iTJNoYT2l+706zzHouCb7QXnQV5FRHXIWUCbudKygIy2dlT+WIFS/yr6DRjdgqoRkMSsN5iRBbnnwch7K5RR0xeR8g1YAYQaH417qogeo+bvUlqJnG+w38uFVrJelTrtXbD4JhtZKpRvNCSar/bPY69pg4hk1Um6x+aboi+Bifz2lVP48zmlDOpYQxfK8der4W3X8Q0erF17Gki3AUmUOyh76LEB4T6LunfbX0bQMJY0gCk58VOKrmYxHTI2NPW3FSt5+VjZ1u3xDbGv6jaQdANHYv3rAH9cxpFGd4e9xvSrws7bgT8CBp/ebj9F9BiNfokGZViBsP9roDYD+AktVGdhM9zsUd4dHVCSK+trwDeF+zhbOPwCM1K/2Y5y2fp7BwqKNiTpwZIZxiVkNTLI0Cj4Bi9Ec3OZQ5L5BeoqoD3QvVdZ01juE3saul/03nVgcGuALtfeE7xjBLHgm5tdUHM6uPXmuO8bY2reqcU3jsOdwICjvDMWAs4gItmyAGHO5JstZ4Dzz9CF3cp8yfi9bfNw3na9ZEHFwuAbxdLCWORqN2IrQE1EPGlIC6bz7cLqHujRN9j0CTEcWUxHbvUN8CHcUcvX7eCQTTqDRXC7x3W4E1qoOiu4BkCIlUWXJgFPbJnUGWb1qyIMvnmIjZzravtu3w3sMqwKJt9kHIN7SDcaspXyundHuU8u3rgA+KakhpvnxbIAWSoxRjUh+o2cVEQ5ZT0ar7/eXwD2MJSxGYTvVOQb1El6O4TJN7JjRZcX5XLGfKAMk74wDFlFgy7GvFba5X3OoKemFt+sOwu39+PHN8QMomySS7LuTTa87XrJgpZoGHyD9Jt/D0CvMObcxf4mFvHNW6gXStcKHpd2I2qoo3YLtm1KssNCuCMwNeTNbM6ab270QZvV0IUdhOp4Kx/pN61dvG1wZgeiusn+ptGvijD4pt2jIswapmEFgolTiFkdiwXfYP2Gv9dlWUC3YGL2Z2L4BgKXk1HSuvWrEbK/Te2iGzfPpzPfYJMaoJyxUq6rUvR8QzMfc31EzjfSIbh/E/Grznpv8Qa1sn/z0QA4Hc0Vzeglp0wQrDrJC8nUbxLBN0hqX+mfyxIupLfMyYr8JhZPyk4Mo2kEJvGHbmurrixbt0Qr7i2mA/NN0ycW/bTmm/ZT2FnR3JhG9m8qfZEadRk4WHTegQ1ZFvs3dt4OJpEYFwCzWPh8g7dn3t3DG6BlAd6D0d5PIN8oXc9ZC926wCYHXhMG4TsV+abJjX0BlIEoeoZyR3agTZ0Hw5vrRoBvgmELiqw5w5DDeD1sEonNYlTnlT7goxi8zXzWI8qzkuwwcgPeO6EMMtghanT528zaouebsibgIKD5JEf2NMXBzPC2679k0WTZ12+Qfxpri3tNRRvcTOpsYLsY0eiFex2RfxpZhwR8i+nY6IUnUTqOWXgx2eAbj0P6CNXG8UxDXcL+aZs9htgW5LBRr38/ESBkFOFCpy+P1szTlsMUGfP807iuLqAzhqXF7iGzGN7ppD8gzPUb7H7Ge5UUBzZGAbJ/E/LivSJ2P/WrRY8b96mE8I1r2QHa+1nOODeqlcUG4cvhG7Rj33Cea6a0xIW/PYMh4xfYsKkbbMz4LtahLaikov4GaDej9m/w5g3ctilHu1YNjczeGoZsewqJv8Ak6jcO6eRaEMZqIr/UxGTnLKyFB/sHDYtVzzcZRc3QmHaPPje3IesSaGIL+/wN/iQne/ukBvahTqZ+I5e0AMceS3+B261uZPSY//FFeI5H8VvFS6IC+vBQbtO8t4uAZnQTwh/O2EfWcpWyCvDRltYc7QSbK5rzN1JGftXpXXiDxEDejMVmPh3yH+uQObStyNRfADlW9bKMe5rPduI62N1I2fToXi0JQB9fhoh07A7AzaenIfZi4M0OdT9lSzU8+GL0jsOdvOEjfvPk/I3miAyZaP7bwSQS47Syi+k/IIgvn2KLpoGSZOmAhTepSQHsCEd7xmsrN/Y5rDsJ4JvZe8kJxF7gIVbdi2KXRWJPS9r7GHh/PRmvvz7svj7acDFsX0k+neDlaFKAtD7huwVaR8cqaX9o1TkNzhkhJMqqltNaAT3C3e3o8XEv+rOWG+9AP7uqP/REw/Vhd/tAQQ71IoF2T27FTUA/6Seo2LD7fGtYH4OvIJOa2Wl5fKRGc4wDLVbMNzi+QDc+sRFq+oc2vsBHA9glmnXKB7FF6F4IH/O+NwSlDLWXu8ZzBsZQaWnrgwdQUHOdLTXkaB4RarQ/tOabegeSXNDQdC0Uejh0G3aVnJPAwMpEwHVfQ0f3Q+rBSerlxIi1B+dQN/H0pbgvYBB0thrd3Jn8yUdbkh3L3Rfg8abQII4vgGM69CDnbzt8IztMp8NBjsuEBsGM4CAF9wIlWn9oghWE9Epft189q6ThG0mWNyF2H2o5rF0VAD0SWafZ6AUjO3J96LNAcybGiLnJHSzQAUnr5lodJhVf4PaNBp3TtunbofpD3waO+J1GB3ol/A9ym0bFWtouVmA/7ALknRGCrueXYcwbja8NPbTkOotPQ9MC+DPi4VNF6dcLHLqt8K8TwDcOyeXcHXT3jkGqACqC/85wKTiQqLxdho99jn7jkFzLalBYsIlLj8Yburt0DtOWYJnQCXrWtAB1vvLBmLvKv+cHMBys32D36PEKePgG1kYOHvUGl6DXkgRn0x0DutRh20iNkEH+CHCLaI9+iwiBCTqm+Wdw9rPCCodt3sJ1euF/cWO+Ia79dwc7Wk4XraJsFHjqNyz28aM/LS87cw3H/Oi9drFkVSn0N6P4RtcKOY+pnmGUZHnV/jPXBnH4lsHBy/CQHTXwNcWNPThSVn/PmR25RdDxVC+DJOe6I52ENZ/eDvZ4dxjctFwBGLJzbA0nyiR2jevxKad/qG4oL4LJBR9tBKZ1/DRqM0x99egWTacDRmEpaezpNT3v6ZCchdU4mk5ocKj32ul1pC0d34CSKOrEvZ6DurWxvr8EnM3iBTpyHrwC9TmimIaJpOzg6zegKudHB9vIGWGwqAY7vjSuXpO3A2nbZPE/fGrUjJHVUeu+odV9tYu/uFrr20kgdUiuebVjlbcm9n4d4EQgtCqQcuoyHGPTx/RKiNl1QvgmZr0Pe2GpEzMZfWDt30xui5MxCn6dSgTccp5XN/9ZmzgoAYm5rBZ1EzZ7Ek2xtJNrrkDbIHcUb0GT11DLYYv9jwSv8KkwHdmIuccLuasO7bJY0mcMVo68ZGPJlyhs0lBLpXbu4vB2KGuSvX/jmrPPPLCpZQHZgXanIv8MsgB5ZvJNxuEBNzYiAZOd5p99U5Uyu3YvZjrfgAOMwQ9BNMCxlZOX/8blzwd7RePv7jHx6LVY1gkV0ziaFl8RlHHEnf62IrtLK3HjTex0pPvzYQw6PtnIjgJoT7t2Kiz7cBQrhBy3NARTiMfbgRYMi2+kbTD/DT+KtmUBEIQQnlK4XKWl0tit0pnJN0ubxzS2I9qUZN9UFTbKLwHfSLIjO7BysjOJpZ3MrokiJUHYExdraW4JEfyKVGPHJbzD5h1I6HRI7wdXcjUbMHHwEJUaJCIKIrG9DFLcF/pDl788XahGmyXPWk69OdQ2f2XxjUPKWXi83zRlg2UBqHbfC+zSbsLFENKZyTcxBCicqmAInOujFQfI4rO5ekQxgYBAQCBgH4GPG1raOi+3NyibYeGIqURKJ8E3iUR/uqwS0U+BgEBAIBA9AoJvBN8IBAQCAgGBQDwQEHwTD5Sj/y4QNQgEBAICgemOgOAbwTcCAYGAQEAgEA8EBN/EA+Xp/lWi6b/Ln7XTEMPK/lannZLJVVkHTsYvDLCuS+sDWe/T0cqn9gqJw3To8FH/dM3bF1iYZoKPZQGTZ8VPMxABwTczcFI19KBKh1iMFB9qG1szeedvyBnDwvK8SRwID5b0plxw+mcsv3TSzrTymo7gfhymg98raQs88NH5eLGLvbQsCyRgfvnDEZ2JAwLTkm9QjBnlhE1DMzMCJvsdIJhu39Qx5hsY2fo382L2fl3RVHp9zP8IB4zx3xneFJNqp9q7oZyg3jdp+g0hmy21CdRv+rfcQmdaTYKT2lsYkzqDcZgOi/67cOqXK/3zWCHvQHiVGhBepZJbYArAaDFG0cNYIjAt+Sa7FocMQNmgI+KbKILz6xdoVekdyDQ/jla3D7u7x/w/Ps4L68BUyva1zSMw3Ofwe/rKo5/snKXHHiOgQKi6H0f2aELV2a+/yNVqHqPFuiocWf3h094vSQxNzXhJWMYLURz2TMktaYRhqiOOFizJr5SbxwWxHin5rAm/JEqZAwhP92/4DQ1WMZgOq05mvLlmS8mRMtMIb0VvXOCHvAMdtiwQPkQaHMTj0wmBack3ynuCFJ0E8w2KUf3jgJrtNZz3YXYxler0Scz5pijvMgy18GgMcSFSCquPhW0skpAIvsr7krWz6HESYm5oW5xlhxeW0bqJ+R/7OkCSG/SPCuUZzozA1eVa1AzFaHPYEceVxRnhxftd7/qG6X8fXIXE891jOkloLKbDEk92Wgf9uJKb8kGIo/H8bRx10LJA2LNj2XNRYIoiIPgm6olBEZojCpOztA4m/nky0dA+XA+C7sScb3Kyz4009AaXEX0Lp0gYGFgV3kuOY4KZ5r+xQvLN0yBz8I22phva2Le4J67FzVB/Yue/sapcktfVokCKT3vbOmGA+mj4Rna4uj4EGsZI1hLrpvUiODxsTevHcabH392zgWolFtNh3Ul7fCPJr7hHgTZ2KcBz8bAsQA3NFA3rPovHpzQCieKborXnhusHyIbHwJinmc7ABkPo/9C/bHXTnm6ctsDXrQpNZXXGQL/ZrmkiW0keJRkMbjh3gIESuHxT9F4HSO3j72hNRu9JSl3FjyBbj+cIUS/ygt47w5sKcxzGFNo2Xy1D6xaYZHV5IyA2pHncGn6Dbaa3tcRhnCsQjB0FotdHD8MJJcdWFjBrw6k2cYYSOjy7kvkqt6Ej2HlwfQaOhsmyp83/+PRlmJgSJIb50l3hBxnYDOkGUAdwQkl+EnhmP2N7syjra8DBe3UGRuvpcK47EsA5bx7CjAmaVEMGItHF42JndtCkRlXeQXCBE0qOuHjcbFJgErNzxnYuRG0xQCAhfEPSwCAjT/sw2l2orysnixjyzcBYw4MJ/50Rd/tIA9yK932lz0JmIVvNRDaOrenXNkHltLbmG3ZUUFp1WNHqwTmngakhA2oz/uuBBYyOGVL+MMqw5jtcvsFJSIcLbNaPiu2zyBhIJo7VQ9zQWwevgXTOIOM9inl+o0FjgVzfj5OtsTuWW9Hc2XID5L/pbT51JvgUpPmCf14+YsyjY5CnqM7cBqBgPXyK8q3hPDdcvpHRXjcrG7TJMGP5E9lGMhgYLaaDJJJBydZw0qChC7sVoAz46PgGZ67Tpq1T038Zx1i1Ehr98o2ZTPFs8gt8ClO5gHmJTh9lLxtjV8WdRCKQEL45iT7zK0qUkbucW09S4cRxirCG8ydnw2WUfGIEbDzc6delU4uebxouNiHpryTfJPnKrPkGZz1A+Ul/HMVZD7R5M9UUn1mQex6MvLdCGTV9ESe+wRzZHcAql723FHsZXbCdBc5YbQqUcfcCJSBPF5J32tSWaJ/8av8847PKHSQWB5+GghdBGmP4J0s7MchTWAPKlavmk15+6jIrfafKnUisfx1Q7yg9icPFktZ3wb7IROE+og2TRi2m402cMusMSUHvOtYHWFZNamLAR8c3uCFDMdIBAyAupIcV7uNs4Uj8AkK/4aJKy4cZcp0Qvtm+tRdY0vy9AwVFG6i0ngqmBuGLvuINKSmj5psxwi6yQzqI3My8J5Ch3Jpv8Ftn0DC0b2PRe9fBYBvuANua94RedpDChiHbXIWG1s0wwSZBKqG1vVYsBJyNSmQk0do9MiiMso097ThGpdmwzzcPB5s+gZ/qnwZu3+2rZtjfmIISZeWijULYRsdiLLgU7XTJxtjJFCvL284Fzq1Z2dplTNRoPh3ykR7ALrT6iJM2hrwYKwM+0fKN/MYFQI0l3Pxy1gUiQskOkqLMFEIgIXwjJxVRTlmPxuuv9xeAPQwFF4PwjQffyFpJHSu+kR0r0JbJxKWbXSxLGhq1YcgqGgosrAv7fJNStQf6bTc0hn1cyVzAURPH6iEYiHNXK9gpUQgGO0Z3nlaVWjvCnS0WjY0a5CnoA7pJZ4G04huk37R28bbBbQzc2Dd7d7Y93gu9FVyso5Tm02HI0yw7JB3XGvBhA2soxl2TWH3h73VZFrAHC7cD4vHpgUBi+Aa+qDkZJa1bvxqpBzsc2l104+b5dOYbbFIDYzRRLCaZbxSyISbKsGSldAju30QuefdfAJaroe4rnS1t8B/eVOisII5zjo8Gdt+aqPz3AO31q+8kUZL09/ViiCkow+YbLNZ9UVgR9R2zJxSwA/HEB4fY2rD5dCSCb/D2zLt7eAO0LMB7UNyfUQgkkG8UHHPWXgS2Jmqv3iB848E3SKGZqK5CNugY6TcrAtUPJi49GN5cx96CIqLTMGSbosqOfpNStRVuMvku+/kKljIdrAt8MubxIpu90hXbHbiNz8Qoh2PwRcthsomN/dNGl7/N6gCqMCq+wZwHHBZw98z1G+yfttljDKawpqINeC7c7mzI1400Bn/ioz+V/wrO4dVmOh3ID5BlT1M2zAx8HKV+g93P+HNnUoDs33Sf3QJtrcrsiIsZiEBC+Ma17ADt/SxnnIPHUFR3AIPw5fBN3mW4NXI+bAORA7s7T1RX4U/IpJIBeMJ/dGsOmmZMP268BZqTfR7lqLbvDw0OV6PNG7htU452rTjmLMOQebJGdx8hcyuIDFNJqwPQI25CPQNLyEbxjCDSNqzVfHItiCo2YXr+xllYCw/2D4a8ZKcatVUM3Y5v+8vopvHufaubSJkNWZdAE1tMzt9ExTfIQe5pr78MtShvugiP6XD8oZcEPgAWLZYMXUP83B7S1rlw8EzZUt0JDIyhHl+houGhmf1oAPjp3Rpdjtchs1rT6cDdG7TyFwh5c2HlKbkH22Fn+i5q6dOoETI7I0sHLNwXzQqo3yLCP40NL/3WTPfrBPDN7L2PoWSf8PWCsDTVyL+LPpVi256WhM72Pxmvvz7svj7acNH+aXBMJ5eewG5cH8Vdulin+C+s/QZqXQ9AlJrqOxOXHoz7mSdXDBqGsiZU5zQoShQXuNL3ycLKaa1oR7F5UAfGvejPWr3nt1Kn/iIHbw75bgIEfI8m/NA+Sfhm+6brcBQDox7cEA4FtLWY9EFHYJw/X0EmNZOPbqm0qZ+oL+0eqp+6zQPSLhI0yGONFrXfPV7EOOWj+kOH+vuAUa7GEBEHe/F2trRpHXlJSZmItts9PS1XQorKxfIXIJF1mv3UQEjPU9zQPPg09FDRGMhPHPT0lXzc1ksUPm3rB1deAaRb2TlKhxgA181dC6nKTaeD6Q8dUujHIZFADwDJHnBM594QQEPPN070TQBcz9s6W66FQkEdIcFRJ9dZfIuYF8j1IdYP0SuBGqkeOvHTdEYgAXzjkFzO3UF3Lz7ICRzV7gyXaoJ6GT72OfqNQ3ItqxlGp3MuPRpv6O7SOUzzFyvim+HN2/urwRnMiUuPxqqbsW80fmpF055uKKyfTPi6+9euPrnnB1YIAB7fIEvak/GKEsVJlBw86g0uQV+12GEM7WBR/4cRrcC1pIog8GDMfexgchUw3BG+UWkVbpIpTYztKQpTREpVSBRu4fogcfQbLFuprRr0wmCv6KEL5cSkJmGnLP3xRlBePe8J1IKHT0MaSoNjYZ9SpEs61x3p7IY+0KF7oZYj7jN9oCqtxIdVre8vuTVR+Z3h4At51QubgT2N8jAOE0yufoP3OQzB0yYq9Z7i5tORkV/V2U1C+9zGx2DVTsp/OdWCz70Odbedyl8CXaj1fCM7UjYebAvdHoSADw51X/GVrFIrga+Ja14tiMi59+uA0Y/OXgHnwSugfk5IPV1z4s/pjUBC+GZ6Q8bnsJk+LiUgcTl7HzsGyCjxobmsFkOQOfs32YFCGBCskDtM5M891HKY8ucmVBQDEGxWFYfpsOiJa84+88CmlgUU3zli3LNoMYazL6pKAAIzk2/wSUytBQmfx7RvqhJL34jA+uCHQBaPrZy8/Dcufz7YKxp/d8+WSZbdLL5J9+f/j3YsrQAACr1JREFUG7TOJxviWt3fVmTEJ8534jAd/BFJ22D+m++G32A5bTsk2bIAmN8CaE+7dkr1jOe3OMnrIQHy92Ub0czkG3akGbD7MnEpDFOVWH8sBLIDKz0ROGiwquJJlrST2TVRpCTgVau/z+IbSZbeD67kajZwFDAejz7+m77ycMYbzbNxmA5u93IWHu/nkQ2UpJYFZOhNR9tU44Ubd1CiA5OIwMzkm5ftq0GMNyIEoA/Clb6mTyfxBYuoY6I/AoGZiYDgm5k5r0LMCQQEAgKBqYaA4BvBNwIBgYBAQCAQDwQE38QD5an2lSH6IxAQCAgE4o+Ahm/i37xoUSAgEBAICAReEgQE3wj9RiAgEBAICATigYDgm3igrP14WVH4zy+25btI3DC6Awtzys7s/vhPqbPom+JaICAQEAjMBATiwjd/ePX55+nPPpm3afJ83l9bcP/z9Gefplbaa+LczswXteq/ZxvnailhEqf2F7lVNWf91aV/YrS4uOTQWX+Np8RpbxSMGsSDAgGBgEBgqiIQF75ZlQaE+2epZZOHQkbqM8AfaefsNVGZn3a3BPz7yQNYJ458k1Xo8dec/aJwMYPSlpX6as76StcsDJtIZKfzd3nLMsN/0B5cYfdHVCsQEAgIBAwIvKR8owhQpOjEjW9+scZdfdZfXZb3C8NMOH719/1n/TUndmQaf7K64yz6ouas/1BRljIucSEQEAgIBKYaAoJv4qnfZP7lqL/m7JkPsnjKjX93biQ6iuCbqfZeif4IBAQCRgTYfHPi3bRnJxYDI5g349nO1BN0PhJoHHu2MXnTstT7HlRm0f2/JqfT3+Cz5tZ+6HzuhRskh189v4G2p829+lnmi13zj74LC9Q4r/4m+duyRaAtz6vnqIa2r371J1R/7eLnh9K+NcQErPxz2rMa2ITHefXPr2rtabCV2tevZhDJzjG4mes36a/N+/7TRS/QQDzO71fP1QyTHrKd67crqs/6a/YVspWbeqjchOkpkF3mrzlr+Of+ewrdn1mZqz45fuQ0LFbv21/2999ocnzllcJNo0WvF2z7pw/UVu/b/8mfUsLsiXFtiTsCAYGAQIBGgME353ZmAOlf8/r9krS7B9LB9fG0czIR3JBvnh9+/bl38bPytLvlkCpqF938DSkgyedKYA3eRT/tJDWo+zeICTJffO68u/O154DSMl985rx7CDyi2LXKNr4O2Q7WgJrwpn//e7WJsg2oAN0Hev8mBnyTvjj1GWCaxc8/Tbtb4oTXmc82ROxZQJSb36qjUGbid/9orDnr352nZIJhlFEK0xeZf6vctqOyFPJE9T/d23aAP7f9bYVaZpar8J+QaU4cL91RuRvsHvlrTu75nUonkG9qGz31fo/bva2sxlMPyhwppiqh2UtcCwQEAgKBiBDQ8036718FHPBZahmRR2WbgGRXmMCBNv+9r18lBNNSDk1SiiBGmoT39atkSxzVQPwFEBM4W4AqM+9ubeaLQ6lbJNmxGG7475wHBKU87z4Q9GoNeeucgH5QSUl2zJp3FxTIuEuyP+WthiqU6i8QPd/M/fYAaOL+aiL6k+fdP5H5wpt2jiCjynQ70K+o8Jz11+wvZLhBpxTurvfXeCsoDiCN2qlZkk3sacgdrsZTsgh325mzH9DJ/sJM0n/IN2D7B+eFk98Bm0w1tRW/s9c6qSe8PounBAICgZcNAT3fnNgK9Iz76yjZgZjgwALszYz4BhEDlEc6k9R2pHmUz39HkVboEeyfhpgAOZJBvkFVIZaC1+mIPJQWIcHcB+5nr199DXbsbcgun6ceVZrQm8ui5pvUBT/VZr6gm5Dk87sAA9Fqlu3lgqR8Y/EKCljS+cziM1oCYJQxb8iEb1bthezybrpawztuoOL8839TcQcQ37izSX8cswqAhY3jRKfWo5QXFwIBgYBAwAYCOr5BH/VwU4Q6ngJ0C8Wb2YpvEGO9oAgJq0S2+QYb0+gapOSbn6uyftNfobqjdEmSHTHnm9+/CkbN+qcoVWFI3t/uOHLWX+P+OxHxFKPIULmprVgWmdoE55jPN8j92l+6hmrxtzuApqWqLwa+kVZ8cBKw1LaV1FM2FlMYgIjaBAICgZcPAT3fXD0MhCzcscAnVNA5lbsfgtOaP0v65c/++Op/vvg1TSdIv/l/7/8P+DXpl0a+QY/858gCeP7GWr+ZEnyDVKgTcBMLntTBOJSktRBDom3xujBnn7/mrK/4bYb4zvw4WuXGYWZPi4ZvfExtzPaoGYMVzwoEBAKThwCSwD9L+qWxich+MtYT5R0d38iILdTdGoqBfz5rDvi3euF/Ty/+z64UpeFzOzP/88Wv/+8DGRXYUfgaUAt2zUOuXD9L+iV65L9H55fPmuOQrPnmHbRbw7CnOb9NhVIMkcFR6gBpzPUbZE+LeLeGws2RBZWbo0zlJq+01l9T685W3DHoB21f8/WbhXi3xmhPU33YDPoNsaf97XXBGQIBgcD0QADLZyildZQDhDCS3rPmmPz0cyCfJ3ewer5J/wO0Ix1P07gmL56bofSYxTf/Pb1Y4Zuf/3Y+9DpDHgFAJWrcvei/pxcjvvlZ0v8Af2i8sc/ev3GkLvjJ3F9Ang+3cxbdfBOjg1Uivb9Axvd/wAUqodcDaVfFFPPrpmQD0HO/PQT9IDaqrt7pqcnbKY9twyNqtdRPWLlhRg3g8wSzKu7N1I3gvGdNWR7VLi6ckn8c/GTtL/BFYSZ+RM4DEXciO3lq7IC4IxAQCEw2AjSj/NxAKgrZoAu6M+YP0iVjcq3nG4ckY39o5M1c4oRnXDJC2YQhWXxD6zc/S/of6NmV+cK76H5J2oMjGf89ESbfSDLLH1p1V3NIWA974U3HLtfHMwDJqXwjnyiGPtnHX7tbknb/8OIXhgIIPuyPh+rZ6Xz2saq3EX/ozBeHncCY9in0/D6Uuj2sTwCTkGiz/lRc66+pr8qJTrkBA/nV3/cjJ+ZD7m073HtPNKr0xvSH/qfiriY7JOyfVlPvO7S/ctt+SF1nG0vXhO2cHZMVKSoRCAgEwkXAnDboX831G92v4XbDsjyDbxySXPnnV58dh2c5axc/P+r8/p25b8HNG0CPqxca92+0fPNLR3Ly1TJ4TNK7+FlZ6smsBf8H9Zu9wLBobU9Dnd7+DtWHQ6+eX6T9up8193zJa/BI6eLnh149/xrykKbip6E+gPM9oA8nUpOvHtUQkgJN2TpybtSb8axsPk0n6a/Nu1m2CB9crUkHR1+RQc8u5SzMLgMnKJlRA1ILa8Axl49jc8xFXlay+wQ8rXnWX338+N9zsySlk3OyVu2o8SjnPXcUOOfQYGJ72t/eqdxfC9wEak5/se0dxVuaLimuBQICgSmKgEIqRs5QfjKqPg5FsBu0IkVCxvCCzTe8BtCmk8mvJj8ZUeAVnjn3TUKiKcqN5qh/QpayYf9GISpxIRAQCEwfBKa+fA6Pb2YOE8RnDb3+pw/2nSllhkRLca3b8cWhGCk30c2L4JuE0LxoVCDw0iEg+Oalm3IDOQm+EWtAICAQiAcCgm/igbJBxE+pRv9UuL9y244PIsiDMLXHNaVAFp0RCAgEZME3YhEIBAQCAgGBQDwQEHwTD5SFHiAQEAgIBAQCgm8E3wgEBAICAYFAPBDQ8M2cuWnin0BAICAQEAgIBCYDgf8P4tnkSisXuPYAAAAASUVORK5CYII=;" vertex="1" parent="1">
          <mxGeometry x="948" y="160" width="292.71" height="217" as="geometry" />
        </mxCell>
        <mxCell id="NF1_YRwe_W2uzEk2HSps-14" value="" style="rounded=0;whiteSpace=wrap;html=1;fillColor=light-dark(#FFFF99,var(--ge-dark-color, #121212));" vertex="1" parent="1">
          <mxGeometry x="112.5" y="40" width="10" height="10" as="geometry" />
        </mxCell>
        <mxCell id="NF1_YRwe_W2uzEk2HSps-15" value="Pin" style="text;html=1;align=center;verticalAlign=middle;resizable=0;points=[];autosize=1;strokeColor=none;fillColor=none;" vertex="1" parent="1">
          <mxGeometry x="122.5" y="30" width="40" height="30" as="geometry" />
        </mxCell>
        <mxCell id="NF1_YRwe_W2uzEk2HSps-16" value="" style="rounded=0;whiteSpace=wrap;html=1;fillColor=light-dark(#EA6B66,var(--ge-dark-color, #121212));" vertex="1" parent="1">
          <mxGeometry x="112.5" y="60" width="10" height="10" as="geometry" />
        </mxCell>
        <mxCell id="NF1_YRwe_W2uzEk2HSps-18" value="Term" style="text;html=1;align=center;verticalAlign=middle;resizable=0;points=[];autosize=1;strokeColor=none;fillColor=none;" vertex="1" parent="1">
          <mxGeometry x="117.5" y="50" width="50" height="30" as="geometry" />
        </mxCell>
        <mxCell id="NF1_YRwe_W2uzEk2HSps-26" value="" style="group" vertex="1" connectable="0" parent="1">
          <mxGeometry x="90" y="200" width="20" height="10" as="geometry" />
        </mxCell>
        <mxCell id="NF1_YRwe_W2uzEk2HSps-5" value="" style="rounded=0;whiteSpace=wrap;html=1;fillColor=light-dark(#FFFF99,var(--ge-dark-color, #121212));" vertex="1" parent="NF1_YRwe_W2uzEk2HSps-26">
          <mxGeometry width="10" height="10" as="geometry" />
        </mxCell>
        <mxCell id="NF1_YRwe_W2uzEk2HSps-13" value="" style="rounded=0;whiteSpace=wrap;html=1;fillColor=light-dark(#EA6B66,var(--ge-dark-color, #121212));" vertex="1" parent="NF1_YRwe_W2uzEk2HSps-26">
          <mxGeometry x="10" width="10" height="10" as="geometry" />
        </mxCell>
        <mxCell id="NF1_YRwe_W2uzEk2HSps-27" value="" style="group" vertex="1" connectable="0" parent="1">
          <mxGeometry x="90" y="300" width="20" height="10" as="geometry" />
        </mxCell>
        <mxCell id="NF1_YRwe_W2uzEk2HSps-21" value="" style="rounded=0;whiteSpace=wrap;html=1;fillColor=light-dark(#FFFF99,var(--ge-dark-color, #121212));" vertex="1" parent="NF1_YRwe_W2uzEk2HSps-27">
          <mxGeometry width="10" height="10" as="geometry" />
        </mxCell>
        <mxCell id="NF1_YRwe_W2uzEk2HSps-22" value="" style="rounded=0;whiteSpace=wrap;html=1;fillColor=light-dark(#EA6B66,var(--ge-dark-color, #121212));" vertex="1" parent="NF1_YRwe_W2uzEk2HSps-27">
          <mxGeometry x="10" width="10" height="10" as="geometry" />
        </mxCell>
        <mxCell id="NF1_YRwe_W2uzEk2HSps-43" style="edgeStyle=orthogonalEdgeStyle;rounded=0;orthogonalLoop=1;jettySize=auto;html=1;exitX=1;exitY=0.5;exitDx=0;exitDy=0;entryX=0;entryY=0.5;entryDx=0;entryDy=0;" edge="1" parent="1" source="NF1_YRwe_W2uzEk2HSps-13" target="NF1_YRwe_W2uzEk2HSps-30">
          <mxGeometry relative="1" as="geometry" />
        </mxCell>
        <mxCell id="NF1_YRwe_W2uzEk2HSps-44" value="&lt;font style=&quot;font-size: 10px;&quot;&gt;&lt;i&gt;in&lt;/i&gt;&lt;/font&gt;" style="text;html=1;align=center;verticalAlign=middle;resizable=0;points=[];autosize=1;strokeColor=none;fillColor=none;" vertex="1" parent="1">
          <mxGeometry x="125" y="180" width="30" height="30" as="geometry" />
        </mxCell>
        <mxCell id="NF1_YRwe_W2uzEk2HSps-45" value="&lt;font style=&quot;font-size: 10px;&quot;&gt;in&lt;/font&gt;" style="text;html=1;align=center;verticalAlign=middle;resizable=0;points=[];autosize=1;strokeColor=none;fillColor=none;" vertex="1" parent="1">
          <mxGeometry x="75" y="180" width="30" height="30" as="geometry" />
        </mxCell>
        <mxCell id="NF1_YRwe_W2uzEk2HSps-46" value="&lt;font style=&quot;font-size: 10px;&quot;&gt;b1/in&lt;/font&gt;" style="text;html=1;align=center;verticalAlign=middle;resizable=0;points=[];autosize=1;strokeColor=none;fillColor=none;" vertex="1" parent="1">
          <mxGeometry x="140" y="200" width="50" height="30" as="geometry" />
        </mxCell>
        <mxCell id="NF1_YRwe_W2uzEk2HSps-47" style="edgeStyle=orthogonalEdgeStyle;rounded=0;orthogonalLoop=1;jettySize=auto;html=1;exitX=1;exitY=0.5;exitDx=0;exitDy=0;entryX=0;entryY=0.5;entryDx=0;entryDy=0;" edge="1" parent="1" source="NF1_YRwe_W2uzEk2HSps-22" target="NF1_YRwe_W2uzEk2HSps-33">
          <mxGeometry relative="1" as="geometry" />
        </mxCell>
        <mxCell id="NF1_YRwe_W2uzEk2HSps-48" value="&lt;font style=&quot;font-size: 10px;&quot;&gt;clk1&lt;/font&gt;" style="text;html=1;align=center;verticalAlign=middle;resizable=0;points=[];autosize=1;strokeColor=none;fillColor=none;" vertex="1" parent="1">
          <mxGeometry x="65" y="280" width="40" height="30" as="geometry" />
        </mxCell>
        <mxCell id="NF1_YRwe_W2uzEk2HSps-49" value="&lt;font style=&quot;font-size: 10px;&quot;&gt;&lt;i&gt;clk1&lt;/i&gt;&lt;/font&gt;" style="text;html=1;align=center;verticalAlign=middle;resizable=0;points=[];autosize=1;strokeColor=none;fillColor=none;" vertex="1" parent="1">
          <mxGeometry x="120" y="280" width="40" height="30" as="geometry" />
        </mxCell>
        <mxCell id="NF1_YRwe_W2uzEk2HSps-50" value="&lt;font style=&quot;font-size: 10px;&quot;&gt;b1/clk&lt;/font&gt;" style="text;html=1;align=center;verticalAlign=middle;resizable=0;points=[];autosize=1;strokeColor=none;fillColor=none;" vertex="1" parent="1">
          <mxGeometry x="140" y="300" width="50" height="30" as="geometry" />
        </mxCell>
        <mxCell id="NF1_YRwe_W2uzEk2HSps-51" value="&lt;font style=&quot;font-size: 10px;&quot;&gt;clk2&lt;/font&gt;" style="text;html=1;align=center;verticalAlign=middle;resizable=0;points=[];autosize=1;strokeColor=none;fillColor=none;" vertex="1" parent="1">
          <mxGeometry x="65" y="330" width="40" height="30" as="geometry" />
        </mxCell>
        <mxCell id="NF1_YRwe_W2uzEk2HSps-28" value="" style="group" vertex="1" connectable="0" parent="1">
          <mxGeometry x="90" y="350" width="20" height="10" as="geometry" />
        </mxCell>
        <mxCell id="NF1_YRwe_W2uzEk2HSps-23" value="" style="rounded=0;whiteSpace=wrap;html=1;fillColor=light-dark(#FFFF99,var(--ge-dark-color, #121212));" vertex="1" parent="NF1_YRwe_W2uzEk2HSps-28">
          <mxGeometry width="10" height="10" as="geometry" />
        </mxCell>
        <mxCell id="NF1_YRwe_W2uzEk2HSps-24" value="" style="rounded=0;whiteSpace=wrap;html=1;fillColor=light-dark(#EA6B66,var(--ge-dark-color, #121212));" vertex="1" parent="NF1_YRwe_W2uzEk2HSps-28">
          <mxGeometry x="10" width="10" height="10" as="geometry" />
        </mxCell>
        <mxCell id="NF1_YRwe_W2uzEk2HSps-129" style="edgeStyle=orthogonalEdgeStyle;rounded=0;orthogonalLoop=1;jettySize=auto;html=1;exitX=1;exitY=0.5;exitDx=0;exitDy=0;entryX=0;entryY=0.5;entryDx=0;entryDy=0;" edge="1" parent="1" source="NF1_YRwe_W2uzEk2HSps-24" target="NF1_YRwe_W2uzEk2HSps-117">
          <mxGeometry relative="1" as="geometry">
            <Array as="points">
              <mxPoint x="510" y="355" />
              <mxPoint x="510" y="305" />
            </Array>
          </mxGeometry>
        </mxCell>
        <mxCell id="NF1_YRwe_W2uzEk2HSps-38" value="" style="group;rotation=-180;" vertex="1" connectable="0" parent="1">
          <mxGeometry x="880" y="250" width="20" height="10" as="geometry" />
        </mxCell>
        <mxCell id="NF1_YRwe_W2uzEk2HSps-39" value="" style="rounded=0;whiteSpace=wrap;html=1;fillColor=light-dark(#FFFF99,var(--ge-dark-color, #121212));rotation=-180;" vertex="1" parent="NF1_YRwe_W2uzEk2HSps-38">
          <mxGeometry x="10" width="10" height="10" as="geometry" />
        </mxCell>
        <mxCell id="NF1_YRwe_W2uzEk2HSps-40" value="" style="rounded=0;whiteSpace=wrap;html=1;fillColor=light-dark(#EA6B66,var(--ge-dark-color, #121212));rotation=-180;" vertex="1" parent="NF1_YRwe_W2uzEk2HSps-38">
          <mxGeometry width="10" height="10" as="geometry" />
        </mxCell>
        <mxCell id="NF1_YRwe_W2uzEk2HSps-132" style="edgeStyle=orthogonalEdgeStyle;rounded=0;orthogonalLoop=1;jettySize=auto;html=1;exitX=0;exitY=0.5;exitDx=0;exitDy=0;entryX=1;entryY=0.5;entryDx=0;entryDy=0;" edge="1" parent="1" source="NF1_YRwe_W2uzEk2HSps-120" target="NF1_YRwe_W2uzEk2HSps-40">
          <mxGeometry relative="1" as="geometry" />
        </mxCell>
        <mxCell id="NF1_YRwe_W2uzEk2HSps-212" value="Pins: 28&lt;div&gt;HierPin(Term): 10, Top level Pins: 4&lt;/div&gt;&lt;div&gt;Leaf pin: 18, Buf: 2, FF: 5, contains 2 internal pins&lt;/div&gt;" style="text;html=1;align=center;verticalAlign=middle;resizable=0;points=[];autosize=1;strokeColor=none;fillColor=none;" vertex="1" parent="1">
          <mxGeometry x="-10" y="440" width="290" height="60" as="geometry" />
        </mxCell>
        <mxCell id="NF1_YRwe_W2uzEk2HSps-213" value="&lt;div&gt;Instance: 9, Hier Inst: 3(+top), Leaf Inst: 6&lt;/div&gt;Nets: 15" style="text;html=1;align=center;verticalAlign=middle;resizable=0;points=[];autosize=1;strokeColor=none;fillColor=none;" vertex="1" parent="1">
          <mxGeometry x="294" y="450" width="240" height="40" as="geometry" />
        </mxCell>
        <mxCell id="NF1_YRwe_W2uzEk2HSps-214" value="&lt;font style=&quot;font-size: 10px;&quot;&gt;out&lt;/font&gt;" style="text;html=1;align=center;verticalAlign=middle;resizable=0;points=[];autosize=1;strokeColor=none;fillColor=none;" vertex="1" parent="1">
          <mxGeometry x="890" y="240" width="40" height="30" as="geometry" />
        </mxCell>
      </root>
    </mxGraphModel>
  </diagram>
</mxfile>
